<?xml version="1.0" standalone="no"?>
<!DOCTYPE svg PUBLIC "-//W3C//DTD SVG 20010904//EN"
 "http://www.w3.org/TR/2001/REC-SVG-20010904/DTD/svg10.dtd">
<svg version="1.0" xmlns="http://www.w3.org/2000/svg"
 width="240.000000pt" height="240.000000pt" viewBox="0 0 240.000000 240.000000"
 preserveAspectRatio="xMidYMid meet">
<metadata>
Created by potrace 1.13, written by Peter Selinger 2001-2015
</metadata>
<g transform="translate(0.000000,240.000000) scale(0.100000,-0.100000)"
fill="#000000" stroke="none">
<path d="M1157 2329 c-9 -9 -17 -20 -17 -25 0 -5 -10 -18 -21 -28 -18 -15 -23
-16 -31 -5 -7 11 -8 11 -7 -1 3 -17 -9 -68 -20 -90 -10 -21 -12 -221 -2 -275
5 -24 5 -43 1 -40 -4 2 -7 -34 -8 -80 -1 -47 2 -85 7 -85 5 0 4 -21 -1 -47
-10 -57 -7 -303 4 -303 4 0 8 -5 8 -11 0 -5 -4 -7 -10 -4 -5 3 -10 -1 -10 -9
0 -9 5 -16 10 -16 6 0 10 -12 10 -27 0 -19 -3 -24 -8 -15 -5 7 -8 -37 -8 -99
1 -81 -2 -113 -11 -116 -7 -3 -13 -11 -13 -19 0 -8 -4 -14 -8 -14 -17 0 -54
-39 -47 -49 3 -6 0 -9 -8 -5 -16 6 -42 -21 -33 -34 3 -6 -2 -9 -12 -8 -10 0
-17 -6 -16 -16 1 -10 -4 -14 -12 -11 -8 3 -14 -1 -14 -11 0 -9 -4 -16 -10 -16
-15 0 -108 -96 -112 -116 -2 -11 -13 -20 -26 -22 -12 -2 -22 -10 -22 -18 0 -8
-6 -14 -13 -14 -15 0 -67 -54 -67 -69 0 -6 -6 -11 -14 -11 -8 0 -24 -21 -37
-47 -12 -26 -24 -42 -27 -35 -5 17 -22 15 -22 -3 0 -8 -6 -15 -13 -15 -14 0
-47 -35 -47 -50 0 -6 -7 -10 -15 -10 -8 0 -15 -7 -15 -15 0 -8 -5 -15 -11 -15
-20 0 -119 -109 -113 -124 3 -9 -3 -19 -16 -26 -16 -9 -21 -18 -17 -36 2 -13
1 -24 -3 -24 -4 0 -10 -8 -14 -17 -3 -10 -9 -24 -12 -32 -5 -10 -2 -12 8 -9
18 7 40 -25 32 -47 -4 -10 0 -15 15 -15 12 0 21 -6 21 -13 0 -21 44 -41 66
-30 11 5 40 9 67 7 26 -1 47 2 47 7 0 5 7 9 15 9 8 0 15 4 15 9 0 5 10 11 22
13 13 2 29 18 40 40 12 22 31 40 47 46 19 7 35 24 47 51 12 28 24 41 37 41 17
0 67 42 67 55 0 9 35 45 43 45 11 0 67 59 67 71 0 5 6 9 14 9 8 0 25 17 37 38
34 55 63 69 72 34 2 -9 2 -2 0 17 -3 24 -1 32 9 29 10 -4 12 -54 11 -232 l-1
-228 24 5 c21 4 24 1 18 -16 -4 -13 -2 -17 5 -13 7 5 11 -2 12 -16 0 -22 1
-22 9 -3 8 19 9 19 9 -1 1 -36 54 -47 78 -16 10 12 16 14 19 5 6 -15 44 -18
44 -4 0 5 6 9 13 8 38 -1 57 5 57 17 0 8 6 16 13 18 9 4 12 63 12 254 l0 250
23 -23 c13 -13 27 -23 32 -23 6 0 10 -6 10 -13 0 -8 11 -19 25 -25 14 -7 29
-20 32 -29 10 -27 29 -43 52 -43 14 0 23 -9 27 -27 6 -26 119 -142 209 -216
19 -16 35 -33 35 -39 0 -14 27 -38 43 -38 9 0 21 -13 28 -29 15 -35 46 -51 94
-51 26 0 35 4 36 18 0 10 3 12 6 5 2 -7 13 -13 24 -13 11 0 22 -7 25 -15 9
-22 26 -18 19 5 -5 15 0 21 19 26 14 3 26 12 26 20 0 8 5 14 11 14 6 0 9 6 6
14 -3 8 -1 16 5 18 8 3 8 10 0 25 -7 13 -8 23 -2 25 11 4 -5 81 -18 86 -6 2
-8 11 -5 21 3 13 -12 35 -53 72 -31 30 -64 62 -73 72 -8 9 -21 17 -28 17 -7 0
-13 7 -13 15 0 8 -4 15 -10 15 -5 0 -10 6 -10 13 0 11 -17 28 -79 77 -4 3 -14
17 -23 32 -10 14 -27 29 -38 33 -11 3 -20 11 -20 17 0 15 -100 109 -127 119
-13 5 -23 15 -23 24 0 8 -7 15 -16 15 -9 0 -18 9 -21 20 -3 11 -9 20 -14 20
-5 0 -9 6 -9 13 0 8 -11 19 -25 25 -14 6 -25 17 -25 24 -1 7 -13 22 -27 33
-29 23 -56 48 -95 92 -26 29 -28 38 -32 139 -2 60 -8 118 -12 128 -6 15 -4 17
6 11 10 -6 12 -4 7 8 -4 10 -10 25 -13 35 -5 13 -4 14 4 3 7 -10 10 125 9 418
-2 371 -4 434 -17 444 -8 7 -15 18 -16 25 -1 6 -2 23 -2 36 -2 29 -20 38 -98
45 -48 5 -64 3 -77 -10z m-93 -1724 c-4 -8 -11 -12 -16 -9 -6 4 -5 10 3 15 19
12 19 11 13 -6z"/>
<path d="M1032 2080 c0 -14 2 -19 5 -12 2 6 2 18 0 25 -3 6 -5 1 -5 -13z"/>
<path d="M1032 1990 c0 -19 2 -27 5 -17 2 9 2 25 0 35 -3 9 -5 1 -5 -18z"/>
<path d="M1031 1864 c0 -11 3 -14 6 -6 3 7 2 16 -1 19 -3 4 -6 -2 -5 -13z"/>
<path d="M1034 1560 c0 -52 1 -74 3 -47 2 26 2 68 0 95 -2 26 -3 4 -3 -48z"/>
<path d="M1032 1120 c0 -14 2 -19 5 -12 2 6 2 18 0 25 -3 6 -5 1 -5 -13z"/>
<path d="M1033 445 c0 -22 2 -30 4 -17 2 12 2 30 0 40 -3 9 -5 -1 -4 -23z"/>
<path d="M1032 270 c0 -14 2 -19 5 -12 2 6 2 18 0 25 -3 6 -5 1 -5 -13z"/>
<path d="M1032 160 c0 -14 2 -19 5 -12 2 6 2 18 0 25 -3 6 -5 1 -5 -13z"/>
</g>
</svg>
