<?xml version="1.0" standalone="no"?>
<!DOCTYPE svg PUBLIC "-//W3C//DTD SVG 20010904//EN"
 "http://www.w3.org/TR/2001/REC-SVG-20010904/DTD/svg10.dtd">
<svg version="1.0" xmlns="http://www.w3.org/2000/svg"
 width="240.000000pt" height="240.000000pt" viewBox="0 0 240.000000 240.000000"
 preserveAspectRatio="xMidYMid meet">
<metadata>
Created by potrace 1.13, written by Peter Selinger 2001-2015
</metadata>
<g transform="translate(0.000000,240.000000) scale(0.100000,-0.100000)"
fill="#000000" stroke="none">
<path d="M815 2309 c-4 -6 -21 -9 -37 -7 -26 4 -32 1 -40 -23 -5 -16 -17 -31
-27 -34 -19 -6 -46 -69 -36 -85 3 -5 1 -10 -5 -10 -6 0 -8 -5 -4 -11 4 -6 8
-89 9 -183 1 -94 3 -175 5 -181 1 -5 2 -12 1 -15 -5 -11 -13 -76 -12 -87 1 -7
2 -32 2 -55 1 -169 1 -236 0 -258 -1 -28 0 -138 3 -218 0 -30 -2 -56 -7 -59
-4 -2 -2 -13 3 -24 7 -12 7 -19 1 -19 -6 0 -8 -6 -5 -14 3 -7 6 -72 7 -142 1
-71 6 -135 11 -143 5 -8 4 -16 -2 -20 -9 -6 -17 -53 -12 -76 6 -26 4 -243 -2
-239 -4 2 -3 -9 2 -25 4 -16 6 -32 3 -35 -5 -5 -5 -56 1 -148 3 -49 19 -78 42
-78 7 0 16 -15 20 -34 9 -48 32 -54 62 -16 14 18 30 29 38 26 8 -3 14 -1 14 5
0 6 4 8 9 5 5 -3 7 -16 5 -29 -2 -12 4 -4 15 18 18 37 20 38 20 13 1 -15 6
-30 13 -34 7 -4 8 -3 4 4 -4 7 -3 12 2 12 6 0 15 15 21 32 9 26 9 35 -2 43
-10 8 -11 15 -1 34 10 20 15 158 15 393 0 11 8 18 20 18 10 0 19 5 19 10 0 6
5 10 10 10 6 0 21 11 33 23 12 13 45 37 72 53 28 15 56 34 63 41 7 6 28 17 47
24 22 8 40 24 47 41 10 21 18 26 32 22 11 -4 16 -2 12 4 -4 6 2 8 14 5 11 -3
20 0 20 5 0 18 85 63 105 55 11 -4 16 -2 12 4 -7 11 22 38 54 48 12 4 33 20
47 36 13 16 32 29 42 29 10 0 22 5 25 10 3 6 18 10 32 10 15 0 24 3 20 6 -3 4
3 14 14 23 13 11 20 29 21 56 1 22 9 54 19 72 10 17 14 33 8 35 -5 2 -10 19
-12 38 -2 37 -32 74 -53 66 -7 -3 -15 1 -17 8 -3 8 -21 16 -40 20 -22 4 -37
13 -40 25 -5 19 -40 47 -67 53 -8 2 -23 11 -34 20 -10 10 -37 21 -59 25 -23 5
-45 16 -51 28 -15 27 -48 50 -67 47 -9 -2 -27 11 -40 28 -13 16 -29 30 -36 30
-6 0 -13 3 -15 8 -6 13 -68 53 -81 51 -29 -4 -45 2 -43 16 0 9 -17 26 -39 38
-22 12 -42 24 -45 27 -3 3 -20 16 -37 29 -25 17 -33 30 -33 52 0 16 5 29 10
29 14 0 12 44 -2 58 -9 9 -10 15 -2 20 15 9 19 168 5 177 -6 3 -11 15 -11 26
0 13 4 18 12 13 8 -5 9 -2 3 12 -4 10 -12 43 -17 71 -6 29 -14 50 -19 47 -5
-3 -9 3 -9 13 0 10 -3 14 -8 8 -8 -11 -43 -12 -60 -1 -6 3 -14 1 -17 -5z m200
-899 c-6 -10 16 -38 41 -53 12 -7 33 -20 48 -31 14 -10 37 -18 51 -18 14 0 25
-6 25 -14 0 -15 35 -28 50 -19 5 3 14 -5 20 -19 8 -22 15 -26 42 -24 31 3 33
1 36 -29 2 -23 -1 -33 -11 -33 -7 0 -23 -11 -35 -25 -12 -14 -31 -25 -42 -25
-11 0 -20 -4 -20 -10 0 -5 -6 -10 -12 -10 -7 0 -31 -16 -52 -35 -22 -19 -47
-35 -56 -35 -9 0 -26 -9 -38 -20 -12 -11 -28 -20 -36 -20 -8 0 -21 -8 -28 -17
-7 -10 -21 -19 -30 -21 -14 -2 -17 9 -20 68 -2 38 1 70 5 70 5 0 5 5 2 10 -5
8 -9 220 -5 307 0 6 10 13 23 15 27 5 49 -1 42 -12z"/>
</g>
</svg>
