<?xml version="1.0" standalone="no"?>
<!DOCTYPE svg PUBLIC "-//W3C//DTD SVG 20010904//EN"
 "http://www.w3.org/TR/2001/REC-SVG-20010904/DTD/svg10.dtd">
<svg version="1.0" xmlns="http://www.w3.org/2000/svg"
 width="240.000000pt" height="240.000000pt" viewBox="0 0 240.000000 240.000000"
 preserveAspectRatio="xMidYMid meet">
<metadata>
Created by potrace 1.13, written by Peter Selinger 2001-2015
</metadata>
<g transform="translate(0.000000,240.000000) scale(0.100000,-0.100000)"
fill="#000000" stroke="none">
<path d="M815 2320 c-3 -5 -19 -10 -35 -10 -20 0 -33 -7 -41 -22 -6 -12 -16
-27 -21 -32 -4 -6 -17 -22 -28 -35 -13 -16 -20 -40 -20 -75 -4 -155 -1 -1233
4 -1299 3 -50 1 -77 -6 -77 -6 0 -7 -5 -1 -13 5 -6 8 -73 6 -147 -1 -74 -2
-160 -2 -189 -1 -30 3 -59 9 -65 15 -15 12 -29 -5 -22 -16 6 -20 -5 -7 -18 10
-11 11 -147 1 -140 -23 14 -5 -14 31 -47 22 -21 40 -47 40 -59 0 -36 30 -36
57 -1 16 20 28 28 32 22 5 -7 17 -3 34 11 33 27 57 31 57 12 0 -9 -4 -12 -10
-9 -5 3 -10 -3 -10 -14 0 -29 24 -26 41 5 12 23 11 28 -2 38 -19 14 -22 55 -5
62 17 7 19 89 3 115 -10 16 -9 21 1 28 11 6 14 43 13 160 -2 130 0 151 14 151
8 0 15 -4 15 -10 0 -14 84 -100 98 -100 7 0 12 -6 12 -14 0 -8 8 -21 18 -28
11 -7 24 -23 31 -35 6 -13 23 -26 36 -29 13 -3 27 -14 30 -23 3 -10 37 -48 76
-87 39 -38 88 -86 109 -106 20 -21 41 -38 46 -38 10 0 44 -36 44 -46 0 -9 60
-77 76 -87 9 -5 28 6 55 33 23 22 46 40 51 40 5 0 20 -12 34 -27 13 -14 27
-24 30 -20 3 3 -4 15 -15 26 -14 14 -17 23 -9 27 6 4 16 0 23 -9 7 -10 15 -17
19 -17 11 0 6 18 -10 35 -9 9 -14 19 -10 22 3 4 -1 17 -9 29 -8 13 -11 25 -6
29 5 3 12 1 16 -5 3 -5 11 -10 16 -10 6 0 2 15 -9 33 -11 17 -30 51 -42 74
-19 38 -50 74 -50 60 0 -3 -11 4 -25 17 -14 13 -25 28 -25 35 0 6 -4 11 -10
11 -5 0 -10 5 -10 10 0 16 -59 70 -75 70 -8 0 -15 9 -15 19 0 17 -25 36 -42
33 -4 -1 -9 7 -13 17 -8 26 -41 62 -53 59 -12 -4 -72 57 -72 73 0 17 -27 39
-49 39 -12 0 -21 6 -21 15 0 8 -4 15 -9 15 -5 0 -13 10 -17 23 -7 25 -38 57
-54 57 -5 0 -10 6 -10 13 0 7 -10 17 -22 22 -13 6 -21 13 -18 16 7 9 -30 49
-44 49 -14 0 -56 45 -83 90 -21 34 -21 44 -21 570 0 517 -1 557 -14 590 -4 8
-9 31 -12 51 -5 28 -13 39 -34 47 -51 20 -70 23 -77 12z"/>
</g>
</svg>
