<?xml version="1.0" standalone="no"?>
<!DOCTYPE svg PUBLIC "-//W3C//DTD SVG 20010904//EN"
 "http://www.w3.org/TR/2001/REC-SVG-20010904/DTD/svg10.dtd">
<svg version="1.0" xmlns="http://www.w3.org/2000/svg"
 width="240.000000pt" height="240.000000pt" viewBox="0 0 240.000000 240.000000"
 preserveAspectRatio="xMidYMid meet">
<metadata>
Created by potrace 1.13, written by Peter Selinger 2001-2015
</metadata>
<g transform="translate(0.000000,240.000000) scale(0.100000,-0.100000)"
fill="#000000" stroke="none">
<path d="M1254 2331 c3 -4 -11 -8 -30 -9 -19 -1 -40 -5 -47 -9 -7 -4 -20 -6
-29 -5 -13 3 -18 -4 -18 -23 0 -14 -4 -24 -9 -20 -5 3 -12 -4 -16 -14 -4 -12
-12 -18 -21 -14 -7 3 -14 1 -14 -5 0 -6 4 -12 9 -14 5 -2 6 -25 1 -55 -5 -29
-7 -93 -4 -143 3 -53 1 -90 -4 -90 -6 0 -7 -14 -2 -34 4 -18 4 -54 0 -80 -4
-25 -5 -48 -2 -51 8 -8 9 -254 1 -249 -4 2 -4 -11 1 -29 8 -38 5 -240 -4 -255
-3 -6 -2 -13 4 -17 10 -6 5 -128 -5 -146 -3 -4 -1 -10 5 -14 6 -3 7 -29 4 -63
-7 -65 -7 -64 -1 -118 2 -23 8 -47 12 -54 6 -10 4 -12 -8 -7 -14 5 -16 2 -12
-16 7 -28 9 -117 5 -184 -2 -29 -2 -55 1 -58 3 -3 3 -25 -1 -49 -4 -25 -4 -67
0 -95 3 -28 4 -51 0 -51 -3 0 -5 -15 -4 -32 1 -18 5 -63 7 -99 5 -67 28 -119
52 -119 7 0 16 -7 19 -16 5 -13 15 -15 43 -11 21 4 42 2 50 -4 9 -8 15 -5 24
14 7 16 18 24 29 22 10 -2 28 7 40 20 21 22 21 30 21 275 0 167 -3 256 -10
263 -14 14 -14 57 -1 57 6 0 10 9 10 19 0 11 -4 23 -10 26 -5 3 -10 15 -10 26
0 11 5 17 10 14 22 -13 14 95 -8 111 -15 11 -15 13 -1 19 18 7 25 70 9 80 -13
8 -13 55 0 55 13 0 11 381 -2 398 -7 8 -7 12 1 12 8 0 11 16 10 45 -2 25 -6
45 -11 45 -13 0 -9 38 4 42 9 3 9 12 -2 37 -11 27 -11 34 0 41 9 5 11 27 8 74
-2 36 -1 66 2 66 3 0 36 -29 74 -65 37 -36 74 -65 82 -65 8 0 14 -6 14 -13 0
-8 8 -21 18 -30 9 -8 36 -34 59 -56 23 -23 46 -41 51 -41 9 0 52 -46 52 -55 0
-3 14 -19 31 -36 31 -30 44 -30 67 3 7 10 22 18 33 18 10 0 19 4 19 9 0 14 43
0 57 -18 10 -14 13 -12 23 13 8 22 8 32 -1 40 -9 8 -10 7 -6 -6 5 -14 1 -18
-16 -18 -17 0 -19 2 -7 10 9 5 15 25 15 50 0 29 3 39 12 36 14 -6 19 20 6 26
-11 4 -63 86 -63 98 0 5 -7 10 -15 10 -9 0 -19 8 -22 18 -4 9 -17 25 -30 35
-13 10 -23 24 -23 30 0 18 -138 157 -155 157 -8 0 -15 6 -15 12 0 13 -129 138
-142 138 -5 0 -8 7 -8 15 0 15 -134 155 -148 155 -4 0 -20 7 -35 15 -15 8 -25
11 -23 6z"/>
</g>
</svg>
