<?xml version="1.0" standalone="no"?>
<!DOCTYPE svg PUBLIC "-//W3C//DTD SVG 20010904//EN"
 "http://www.w3.org/TR/2001/REC-SVG-20010904/DTD/svg10.dtd">
<svg version="1.0" xmlns="http://www.w3.org/2000/svg"
 width="240.000000pt" height="240.000000pt" viewBox="0 0 240.000000 240.000000"
 preserveAspectRatio="xMidYMid meet">
<metadata>
Created by potrace 1.13, written by Peter Selinger 2001-2015
</metadata>
<g transform="translate(0.000000,240.000000) scale(0.100000,-0.100000)"
fill="#000000" stroke="none">
<path d="M1170 2335 c0 -8 -4 -15 -9 -15 -5 0 -13 -9 -16 -20 -3 -11 -13 -20
-21 -20 -8 0 -14 -8 -14 -17 -1 -16 -2 -16 -16 2 -15 19 -15 19 -9 -7 4 -17 3
-28 -3 -28 -11 0 -24 -70 -27 -142 -1 -31 3 -45 9 -40 6 3 5 -2 -3 -11 -11
-14 -11 -20 0 -34 8 -9 9 -14 3 -10 -8 4 -11 -41 -11 -158 1 -91 4 -165 9
-165 4 0 8 -6 8 -14 0 -26 -67 -3 -100 34 -40 45 -200 88 -200 54 0 -8 -7 -14
-15 -14 -8 0 -15 -4 -15 -10 0 -5 -9 -19 -20 -30 -11 -11 -20 -15 -20 -10 0 6
-5 10 -11 10 -6 0 -8 -9 -4 -21 4 -13 2 -25 -5 -29 -6 -4 -13 -30 -13 -59 -2
-49 -10 -65 -20 -38 -2 6 -8 9 -12 5 -9 -8 18 -38 35 -38 16 0 40 -26 40 -43
0 -8 14 -20 30 -27 17 -7 30 -16 30 -20 0 -4 13 -13 30 -20 36 -15 70 -43 70
-59 0 -6 4 -11 8 -11 5 0 19 -9 32 -20 26 -23 17 -44 -25 -54 -16 -4 -25 -13
-25 -26 0 -14 -7 -20 -24 -20 -23 0 -106 -72 -106 -92 0 -5 -7 -16 -15 -24 -8
-9 -15 -11 -15 -5 0 6 -5 11 -10 11 -6 0 -8 -11 -4 -25 3 -14 2 -25 -4 -25
-15 0 -25 -82 -11 -90 8 -6 8 -9 -1 -15 -7 -4 -16 -2 -21 6 -4 7 -11 10 -15 7
-9 -10 22 -38 43 -38 25 -1 62 -31 46 -37 -20 -7 -15 -19 12 -31 40 -18 72
-15 78 8 6 24 20 26 41 5 12 -12 20 -13 35 -5 11 5 29 10 40 10 12 0 21 6 21
14 0 8 14 20 30 28 17 7 30 19 30 27 0 8 6 11 15 7 9 -3 15 0 15 9 0 17 16 20
25 5 3 -5 2 -10 -3 -10 -11 0 -10 -628 1 -655 7 -16 7 -17 -2 -5 -9 12 -11 10
-11 -13 0 -19 4 -26 12 -21 7 5 8 3 2 -7 -12 -19 -12 -72 1 -82 7 -6 6 -10 -2
-14 -21 -8 -15 -20 12 -27 15 -4 27 -16 31 -30 9 -37 94 -65 94 -31 0 8 7 15
15 15 8 0 15 -4 15 -10 0 -5 7 -10 15 -10 7 0 19 -8 25 -18 11 -16 11 -16 6 0
-6 21 19 38 54 38 6 0 10 7 10 15 0 8 5 15 11 15 6 0 8 9 4 21 -5 16 -4 19 6
14 9 -6 10 -4 6 8 -16 39 -19 52 -10 39 6 -7 9 142 9 383 -1 217 2 395 6 395
6 0 42 -28 80 -63 67 -63 132 -83 158 -52 10 12 15 13 20 4 11 -16 110 8 110
27 0 8 5 14 11 14 6 0 9 6 6 14 -3 8 -1 16 5 18 8 3 8 10 0 25 -7 13 -8 23 -2
25 11 4 -5 81 -18 86 -5 1 -7 13 -5 25 3 16 -3 27 -24 39 -34 20 -67 46 -98
75 -12 12 -44 35 -70 51 -41 26 -45 31 -31 43 31 28 45 39 52 39 7 0 47 41 61
62 9 15 48 38 63 38 13 0 50 37 50 50 0 6 5 10 10 10 7 0 7 6 1 18 -7 13 -6
23 1 30 9 9 9 12 -1 12 -7 0 -10 4 -7 9 4 5 0 12 -6 15 -7 4 -4 5 8 3 17 -4
19 0 16 25 -2 15 -9 31 -15 35 -6 4 -7 1 -2 -7 5 -9 4 -11 -3 -6 -7 4 -12 23
-12 42 0 21 -5 34 -13 34 -7 0 -20 9 -30 20 -13 16 -28 20 -59 18 -26 -1 -43
3 -46 10 -6 19 -23 14 -20 -5 2 -11 -2 -17 -11 -15 -25 5 -51 -9 -51 -30 0
-15 -4 -18 -16 -14 -9 4 -24 0 -33 -8 -36 -33 -59 -52 -79 -63 -19 -12 -20
-10 -19 31 1 25 5 40 8 35 10 -17 8 241 -2 268 -5 13 -5 22 -1 19 10 -6 7 153
-3 178 -6 14 -5 17 4 12 9 -6 10 0 6 21 -11 48 -14 54 -25 48 -6 -3 -10 4 -10
17 0 13 -9 29 -20 36 -11 7 -20 19 -20 27 0 16 -41 30 -69 22 -10 -2 -26 0
-35 5 -12 7 -16 5 -16 -7z"/>
<path d="M1032 1860 c0 -14 2 -19 5 -12 2 6 2 18 0 25 -3 6 -5 1 -5 -13z"/>
<path d="M1032 1780 c0 -14 2 -19 5 -12 2 6 2 18 0 25 -3 6 -5 1 -5 -13z"/>
<path d="M800 1780 c0 -5 5 -10 10 -10 6 0 10 5 10 10 0 6 -4 10 -10 10 -5 0
-10 -4 -10 -10z"/>
<path d="M1031 1704 c0 -11 3 -14 6 -6 3 7 2 16 -1 19 -3 4 -6 -2 -5 -13z"/>
<path d="M1031 804 c0 -11 3 -14 6 -6 3 7 2 16 -1 19 -3 4 -6 -2 -5 -13z"/>
<path d="M1032 715 c0 -16 2 -22 5 -12 2 9 2 23 0 30 -3 6 -5 -1 -5 -18z"/>
<path d="M1032 570 c0 -14 2 -19 5 -12 2 6 2 18 0 25 -3 6 -5 1 -5 -13z"/>
<path d="M1032 500 c0 -19 2 -27 5 -17 2 9 2 25 0 35 -3 9 -5 1 -5 -18z"/>
<path d="M1031 434 c0 -11 3 -14 6 -6 3 7 2 16 -1 19 -3 4 -6 -2 -5 -13z"/>
</g>
</svg>
