<?xml version="1.0" standalone="no"?>
<!DOCTYPE svg PUBLIC "-//W3C//DTD SVG 20010904//EN"
 "http://www.w3.org/TR/2001/REC-SVG-20010904/DTD/svg10.dtd">
<svg version="1.0" xmlns="http://www.w3.org/2000/svg"
 width="240.000000pt" height="240.000000pt" viewBox="0 0 240.000000 240.000000"
 preserveAspectRatio="xMidYMid meet">
<metadata>
Created by potrace 1.13, written by Peter Selinger 2001-2015
</metadata>
<g transform="translate(0.000000,240.000000) scale(0.100000,-0.100000)"
fill="#000000" stroke="none">
<path d="M1616 2332 c-4 -4 -26 -11 -48 -17 -23 -6 -46 -19 -52 -30 -14 -26
-26 -34 -41 -28 -7 2 -22 -7 -33 -21 -11 -14 -25 -26 -31 -26 -5 0 -15 -9 -21
-20 -6 -11 -17 -20 -26 -20 -8 0 -17 -7 -20 -15 -4 -8 -12 -15 -20 -15 -8 0
-14 -5 -14 -11 0 -5 -4 -8 -9 -4 -5 3 -18 -6 -29 -20 -11 -14 -25 -25 -32 -25
-20 0 -73 34 -98 63 -14 15 -34 27 -48 27 -14 0 -27 7 -31 18 -8 21 -26 39
-67 70 -35 26 -46 28 -46 6 0 -8 -4 -12 -10 -9 -5 3 -10 15 -10 25 0 30 -28
39 -94 29 -33 -6 -64 -13 -69 -16 -6 -3 -7 -1 -3 5 4 7 1 12 -9 12 -9 0 -18
-12 -21 -29 -4 -17 -12 -32 -20 -35 -8 -3 -14 -15 -14 -26 0 -12 -5 -30 -10
-40 -6 -11 -12 -44 -15 -75 -3 -31 -7 -60 -10 -65 -3 -5 -1 -11 4 -14 5 -4 6
-18 2 -34 -8 -28 -8 -92 1 -108 2 -5 3 -65 1 -134 -2 -69 -3 -154 -2 -190 0
-36 1 -116 1 -177 0 -66 5 -113 10 -113 6 0 7 -7 2 -17 -4 -10 -9 -49 -10 -88
-1 -38 -3 -77 -4 -85 -2 -24 10 -224 15 -238 3 -8 2 -19 -2 -25 -7 -11 -16
-64 -14 -82 1 -5 2 -30 2 -55 0 -25 1 -70 1 -100 1 -126 1 -147 0 -180 -3 -70
4 -215 12 -235 13 -36 24 -50 35 -48 5 2 13 -13 17 -31 8 -47 32 -54 60 -19
17 21 26 25 34 17 11 -11 63 -7 56 5 -2 3 0 15 5 26 7 18 8 17 8 -7 1 -15 5
-29 9 -32 5 -3 6 9 4 26 -4 24 -2 29 8 23 9 -6 12 -4 8 6 -3 8 0 26 8 40 17
30 18 66 2 72 -9 4 -9 6 -1 6 8 1 12 54 14 189 2 232 2 223 -6 302 -9 96 -10
187 -1 258 6 44 5 62 -3 62 -6 0 -11 5 -11 11 0 5 5 7 10 4 6 -4 10 6 10 24 0
16 -5 33 -10 36 -7 4 -9 32 -4 78 5 60 10 154 13 253 1 11 10 30 22 43 12 13
19 30 16 41 -3 11 0 18 6 17 6 -1 11 4 12 11 0 17 25 32 55 32 14 0 36 12 49
26 13 14 30 23 37 20 8 -3 13 -2 13 2 -3 20 3 30 26 40 32 15 38 15 30 2 -3
-5 -2 -10 3 -10 15 0 196 -184 209 -212 7 -16 20 -28 29 -28 12 0 15 -8 13
-33 -2 -18 -1 -37 2 -42 7 -12 5 -77 -2 -90 -3 -6 -4 -30 -2 -55 2 -25 5 -70
6 -101 2 -30 7 -60 10 -66 4 -7 3 -14 -2 -17 -5 -3 -7 -50 -5 -103 3 -54 4
-105 4 -113 0 -8 -2 -85 -4 -170 -1 -85 -4 -157 -5 -160 -6 -11 -6 -102 0
-106 4 -2 4 -16 2 -31 -4 -30 -6 -85 -3 -93 1 -3 2 -24 3 -47 1 -23 6 -45 10
-49 4 -4 7 -15 7 -25 0 -10 9 -21 20 -24 11 -3 20 -15 20 -25 0 -29 37 -45 59
-26 21 19 51 21 51 4 0 -6 16 6 35 28 20 21 40 38 45 36 6 -1 10 6 10 16 0 10
5 23 10 28 7 7 11 66 10 155 -1 79 -1 161 0 182 0 20 -4 37 -10 37 -5 0 -10
16 -10 35 0 19 4 35 8 35 11 0 12 74 1 81 -6 3 -5 19 2 38 9 24 9 35 0 44 -14
14 -15 61 -1 52 14 -9 13 68 -2 83 -9 9 -9 12 1 12 10 0 11 10 7 38 -12 67
-15 147 -5 153 14 8 14 318 0 332 -13 13 -15 41 -3 33 5 -3 9 98 9 224 1 165
-3 230 -11 230 -8 0 -8 2 1 8 12 8 13 166 0 178 -10 11 -8 52 3 56 13 4 -17
88 -42 115 -12 12 -25 20 -29 17 -5 -3 -17 0 -27 5 -11 6 -23 7 -26 3z m-127
-452 c-1 -91 -13 -103 -48 -46 -12 19 -28 37 -36 40 -16 6 -21 36 -6 36 6 0
24 13 42 30 18 16 36 27 40 24 5 -3 8 -41 8 -84z m-511 41 c29 -25 28 -32 -9
-74 -45 -51 -67 -41 -68 31 -1 86 16 95 77 43z m172 -225 c0 -3 -4 -8 -10 -11
-5 -3 -10 -1 -10 4 0 6 5 11 10 11 6 0 10 -2 10 -4z m-370 -1626 c0 -5 -2 -10
-4 -10 -3 0 -8 5 -11 10 -3 6 -1 10 4 10 6 0 11 -4 11 -10z"/>
<path d="M1741 1034 c0 -11 3 -14 6 -6 3 7 2 16 -1 19 -3 4 -6 -2 -5 -13z"/>
<path d="M1700 99 c0 -11 4 -18 10 -14 5 3 7 12 3 20 -7 21 -13 19 -13 -6z"/>
</g>
</svg>
