<?xml version="1.0" standalone="no"?>
<!DOCTYPE svg PUBLIC "-//W3C//DTD SVG 20010904//EN"
 "http://www.w3.org/TR/2001/REC-SVG-20010904/DTD/svg10.dtd">
<svg version="1.0" xmlns="http://www.w3.org/2000/svg"
 width="240.000000pt" height="240.000000pt" viewBox="0 0 240.000000 240.000000"
 preserveAspectRatio="xMidYMid meet">
<metadata>
Created by potrace 1.13, written by Peter Selinger 2001-2015
</metadata>
<g transform="translate(0.000000,240.000000) scale(0.100000,-0.100000)"
fill="#000000" stroke="none">
<path d="M1604 2318 c-3 -4 -15 -8 -27 -8 -25 -1 -57 -22 -57 -38 0 -6 -8 -13
-18 -17 -11 -3 -24 -15 -30 -28 -6 -12 -40 -57 -76 -100 -36 -43 -66 -82 -66
-88 0 -5 -10 -14 -22 -20 -13 -6 -34 -28 -48 -50 -25 -40 -46 -50 -56 -25 -3
8 -16 17 -28 20 -15 4 -26 18 -34 43 -6 21 -36 65 -67 98 -30 32 -55 65 -55
71 0 7 -12 22 -27 34 -14 11 -31 31 -37 43 -7 12 -20 23 -31 25 -11 2 -27 11
-36 18 -17 16 -94 10 -105 -7 -3 -5 -9 -7 -14 -4 -4 3 -19 -12 -31 -32 -13
-21 -26 -40 -30 -43 -4 -3 -7 -24 -7 -47 -1 -43 11 -64 66 -118 12 -12 22 -27
22 -33 0 -6 6 -17 13 -24 27 -27 117 -148 117 -157 0 -5 7 -11 15 -14 8 -4 26
-25 41 -49 14 -24 35 -50 46 -59 20 -16 20 -16 -14 -61 -20 -25 -40 -52 -46
-59 -27 -32 -59 -76 -76 -102 -10 -16 -20 -26 -23 -23 -6 6 -63 -68 -63 -82 0
-5 -15 -23 -32 -40 -43 -40 -58 -59 -58 -71 0 -5 -6 -11 -12 -13 -8 -3 -12
-21 -12 -46 1 -25 -3 -42 -10 -42 -6 0 -4 -5 4 -10 8 -5 11 -10 7 -10 -9 0 42
-77 74 -113 11 -12 36 -42 55 -67 56 -74 67 -89 107 -132 20 -23 37 -47 37
-54 0 -6 11 -19 25 -28 13 -9 32 -30 41 -47 16 -31 15 -32 -23 -73 -21 -22
-41 -42 -45 -44 -5 -2 -8 -10 -8 -18 0 -8 -7 -17 -15 -20 -8 -4 -15 -13 -15
-21 0 -8 -4 -12 -9 -8 -5 3 -13 -5 -16 -17 -4 -13 -21 -37 -39 -54 -42 -41
-99 -113 -108 -136 -4 -10 -11 -18 -15 -18 -16 0 -42 -79 -39 -116 3 -28 10
-40 30 -51 26 -13 30 -22 27 -55 -3 -29 20 -31 49 -3 19 18 35 25 46 21 10 -4
25 1 36 11 21 19 48 26 48 12 0 -5 6 -9 14 -9 9 0 12 7 9 20 -4 15 -1 19 9 15
18 -7 68 48 68 74 0 11 9 23 20 26 11 3 20 12 20 20 0 7 6 15 13 18 10 3 10 9
-1 26 -14 25 -15 34 -3 27 5 -4 11 0 14 6 4 10 7 10 18 1 10 -10 16 -9 31 4
10 9 18 22 18 30 0 7 5 13 10 13 6 0 10 6 10 13 0 18 38 39 61 32 10 -4 19
-12 19 -18 0 -7 27 -42 60 -77 34 -36 68 -78 77 -95 9 -16 19 -32 22 -35 5 -4
82 -98 99 -120 1 -2 31 -5 65 -6 55 -1 70 3 115 32 2 1 10 33 18 70 9 45 10
72 4 78 -6 6 -10 22 -10 38 0 26 -30 55 -43 41 -4 -3 -10 3 -14 13 -4 10 -13
25 -20 32 -7 7 -13 20 -13 28 0 8 -4 14 -10 14 -5 0 -10 6 -10 13 0 17 -46 57
-65 57 -9 0 -21 12 -28 28 -6 15 -17 33 -24 40 -7 7 -13 19 -13 25 0 7 -17 34
-39 60 -27 35 -37 56 -33 73 2 13 8 24 13 24 5 0 9 6 9 13 0 12 57 62 70 62 4
0 14 8 24 18 10 9 25 21 35 26 10 6 23 28 29 49 10 32 16 39 31 35 15 -4 24 4
39 35 14 29 16 44 9 51 -6 6 -7 14 -2 18 4 5 10 2 12 -4 7 -18 24 -16 39 4 16
22 18 53 3 53 -7 0 -8 5 -2 13 5 6 10 26 12 42 2 17 7 32 12 33 5 2 9 8 9 13
0 6 -4 8 -9 5 -5 -3 -11 13 -15 36 -4 24 -19 55 -36 75 -17 19 -30 43 -30 54
0 12 -8 23 -20 26 -11 3 -20 9 -20 14 0 5 -6 9 -14 9 -12 0 -46 55 -46 77 0 4
-14 19 -30 32 -17 13 -30 29 -30 36 0 7 -7 15 -15 19 -8 3 -15 12 -15 21 0 8
-4 15 -8 15 -9 0 -32 59 -32 84 0 9 5 14 10 11 6 -3 10 2 10 11 0 10 3 15 6
11 8 -7 34 17 34 32 0 6 6 11 13 11 22 0 48 55 41 89 -4 20 -2 31 5 31 6 0 11
9 11 20 0 21 46 57 58 46 3 -4 0 -11 -7 -15 -7 -5 -10 -14 -7 -20 4 -6 11 -9
16 -6 11 7 50 92 50 111 0 21 22 42 40 36 9 -2 7 2 -5 12 -17 13 -18 17 -5 25
24 16 20 139 -5 173 -20 26 -71 43 -81 26z m-367 -870 c13 -12 23 -26 23 -32
0 -6 16 -29 35 -50 19 -22 35 -42 35 -45 0 -3 25 -33 55 -66 59 -64 63 -72 40
-81 -9 -4 -27 -26 -41 -49 -14 -24 -31 -46 -39 -49 -8 -3 -24 -24 -35 -47 -23
-44 -33 -57 -64 -90 -20 -19 -20 -19 -53 16 -18 19 -33 38 -33 43 0 4 -10 12
-22 17 -13 6 -23 15 -23 22 0 7 -6 18 -12 25 -7 6 -13 17 -13 23 0 6 -23 34
-51 63 -35 36 -49 59 -47 74 4 25 27 37 24 12 0 -9 5 -19 12 -21 6 -3 12 2 12
11 0 9 6 16 14 16 18 0 40 54 34 84 -5 27 34 72 52 61 6 -4 10 -1 10 4 0 6 6
11 14 11 8 0 20 16 27 35 7 19 15 35 18 35 3 0 15 -10 28 -22z m-167 -1152 c0
-3 -4 -8 -10 -11 -5 -3 -10 -1 -10 4 0 6 5 11 10 11 6 0 10 -2 10 -4z"/>
</g>
</svg>
