<?xml version="1.0" standalone="no"?>
<!DOCTYPE svg PUBLIC "-//W3C//DTD SVG 20010904//EN"
 "http://www.w3.org/TR/2001/REC-SVG-20010904/DTD/svg10.dtd">
<svg version="1.0" xmlns="http://www.w3.org/2000/svg"
 width="240.000000pt" height="240.000000pt" viewBox="0 0 240.000000 240.000000"
 preserveAspectRatio="xMidYMid meet">
<metadata>
Created by potrace 1.13, written by Peter Selinger 2001-2015
</metadata>
<g transform="translate(0.000000,240.000000) scale(0.100000,-0.100000)"
fill="#000000" stroke="none">
<path d="M805 2312 c-6 -7 -11 -8 -52 -10 -16 -2 -23 -8 -23 -22 0 -11 -3 -20
-7 -20 -5 0 -18 -15 -31 -34 -23 -34 -23 -36 -23 -357 0 -351 3 -458 14 -476
4 -6 2 -15 -4 -18 -7 -5 -8 -21 -4 -42 5 -27 3 -33 -7 -27 -10 6 -10 4 -2 -7
5 -8 9 -48 8 -89 -1 -41 2 -82 7 -91 4 -9 4 -20 -1 -25 -12 -12 -14 -60 -7
-131 2 -30 0 -53 -5 -53 -5 0 -6 -5 -2 -11 9 -15 12 -304 4 -344 -3 -16 -3
-45 1 -63 4 -18 4 -46 -1 -62 -4 -16 -5 -31 -2 -35 4 -4 7 -57 8 -119 1 -113
12 -156 39 -156 8 0 15 -9 15 -19 0 -29 39 -38 59 -13 10 12 25 19 41 17 14
-2 28 -4 32 -4 4 -1 5 -8 2 -16 -4 -8 -2 -15 4 -15 6 0 15 12 20 28 10 25 10
26 11 4 1 -21 3 -22 16 -8 8 8 15 19 15 24 0 6 5 12 12 14 7 3 9 11 4 24 -8
19 -8 19 -17 -1 -6 -15 -7 -8 -6 22 1 27 7 43 15 43 14 0 16 36 2 45 -12 7
-14 55 -2 55 13 0 13 252 -1 269 -9 11 -9 15 1 18 16 6 16 47 0 73 -11 17 -10
22 0 29 14 9 13 32 -3 43 -6 4 -5 24 3 54 9 35 10 50 1 60 -8 10 -8 14 0 14 6
0 10 3 9 8 -5 20 28 59 65 77 23 11 42 25 42 30 1 24 17 34 51 29 21 -2 33 0
29 6 -3 5 6 12 20 16 13 3 22 10 19 15 -3 5 4 9 15 9 12 0 21 5 21 10 0 6 7
10 15 10 28 0 118 87 110 107 -2 7 5 18 17 24 15 8 18 8 14 0 -12 -18 4 -13
56 19 26 17 57 30 68 30 11 0 20 5 20 10 0 6 15 18 34 26 18 9 41 30 50 46 10
16 24 27 30 25 7 -3 13 1 13 9 0 8 -4 14 -9 14 -5 0 -6 5 -3 10 5 8 12 7 23
-2 11 -10 16 -10 19 -1 2 7 12 9 21 6 9 -3 14 -3 10 2 -4 4 0 13 9 20 11 9 14
18 8 31 -13 28 -14 57 -3 71 11 13 2 55 -24 106 -17 34 -22 37 -63 37 -24 0
-47 -5 -50 -11 -4 -6 -13 -8 -21 -5 -8 3 -23 -3 -32 -12 -10 -10 -26 -21 -35
-25 -9 -3 -17 -11 -17 -17 0 -5 -8 -10 -17 -10 -10 0 -34 -14 -53 -30 -19 -17
-43 -33 -52 -36 -10 -3 -18 -9 -18 -14 0 -4 -19 -19 -42 -33 -24 -14 -52 -34
-63 -44 -11 -10 -33 -25 -50 -33 -16 -8 -44 -26 -61 -40 -17 -14 -41 -33 -53
-42 -12 -10 -24 -18 -26 -18 -3 0 -23 -11 -45 -25 l-40 -25 -1 22 c0 13 -3 37
-5 53 -10 62 -11 136 -3 141 5 3 9 18 9 35 0 19 5 29 15 29 26 0 95 32 89 41
-3 5 1 9 8 9 8 0 22 14 31 30 10 17 22 30 27 30 6 0 16 15 24 34 8 18 19 37
25 40 15 10 14 -7 -1 -22 -10 -10 -10 -15 1 -21 16 -10 41 -4 41 10 0 5 6 9
13 9 6 0 23 11 35 25 13 14 40 34 60 46 21 11 50 39 65 61 22 31 31 38 37 27
7 -11 10 -10 15 3 4 10 15 20 26 23 11 4 17 11 14 16 -4 5 3 9 14 9 12 0 21 4
21 9 0 5 11 12 24 15 14 3 30 19 38 36 7 16 17 30 22 30 4 0 6 7 3 14 -4 10
-1 13 9 9 10 -3 12 0 8 10 -3 10 2 20 15 26 18 10 20 9 14 -6 -5 -14 -3 -15 7
-6 7 6 19 9 28 6 10 -4 13 -2 8 5 -4 7 -1 15 8 18 9 3 16 11 16 16 0 6 -6 8
-14 5 -12 -5 -13 2 -9 31 3 20 10 42 15 49 11 14 2 55 -24 106 -19 38 -20 39
-66 33 -71 -9 -83 -12 -90 -22 -4 -6 -40 -32 -79 -58 -40 -27 -73 -53 -73 -57
0 -5 -6 -9 -14 -9 -8 0 -16 -3 -18 -7 -1 -5 -32 -30 -68 -56 -160 -119 -227
-171 -257 -198 -18 -16 -39 -29 -46 -29 -16 0 -16 1 -17 147 -1 62 -5 115 -10
118 -6 4 -10 11 -10 16 0 6 5 7 12 3 8 -5 9 -2 3 12 -4 10 -10 30 -12 44 -3
14 -6 31 -9 38 -2 7 -4 16 -6 20 -4 13 -23 30 -30 26 -4 -2 -9 0 -12 4 -6 11
-61 13 -71 4z m666 -385 c-10 -9 -11 -8 -5 6 3 10 9 15 12 12 3 -3 0 -11 -7
-18z m-481 -351 c0 -2 -8 -10 -17 -17 -16 -13 -17 -12 -4 4 13 16 21 21 21 13z
m235 -446 c-10 -11 -23 -20 -29 -20 -6 0 0 9 14 20 32 25 38 25 15 0z m-53
-42 c-7 -7 -12 -8 -12 -2 0 14 12 26 19 19 2 -3 -1 -11 -7 -17z"/>
</g>
</svg>
