<?xml version="1.0" standalone="no"?>
<!DOCTYPE svg PUBLIC "-//W3C//DTD SVG 20010904//EN"
 "http://www.w3.org/TR/2001/REC-SVG-20010904/DTD/svg10.dtd">
<svg version="1.0" xmlns="http://www.w3.org/2000/svg"
 width="240.000000pt" height="240.000000pt" viewBox="0 0 240.000000 240.000000"
 preserveAspectRatio="xMidYMid meet">
<metadata>
Created by potrace 1.13, written by Peter Selinger 2001-2015
</metadata>
<g transform="translate(0.000000,240.000000) scale(0.100000,-0.100000)"
fill="#000000" stroke="none">
<path d="M825 2310 c-3 -5 -17 -10 -31 -10 -13 0 -24 -5 -24 -11 0 -6 -17 -28
-38 -48 -52 -49 -60 -90 -28 -156 13 -27 30 -68 37 -90 6 -22 29 -77 51 -123
21 -46 38 -90 38 -98 0 -8 4 -22 9 -32 24 -45 71 -156 71 -168 0 -7 7 -30 16
-51 25 -57 30 -70 69 -167 19 -49 39 -94 44 -100 13 -16 -5 -112 -28 -144 -10
-15 -22 -46 -26 -67 -4 -22 -16 -55 -26 -73 -10 -18 -24 -54 -31 -80 -6 -26
-15 -49 -19 -53 -5 -3 -10 -18 -12 -35 -2 -16 -6 -34 -9 -39 -3 -6 -11 -27
-17 -48 -7 -20 -17 -37 -22 -37 -6 0 -7 -4 -4 -10 3 -5 -1 -24 -9 -42 -19 -43
-41 -111 -38 -121 1 -4 -2 -7 -7 -7 -9 0 -24 -32 -26 -55 0 -5 -15 -41 -33
-80 -19 -41 -35 -92 -38 -125 -2 -30 -7 -63 -10 -73 -6 -20 17 -47 40 -47 9 0
16 -4 16 -9 0 -13 35 -23 82 -25 28 -2 39 2 43 15 3 9 17 20 30 23 14 4 25 11
25 16 0 5 6 7 14 4 20 -8 42 39 51 109 4 31 11 60 16 63 5 3 9 18 9 33 0 15 6
41 14 57 8 16 19 41 25 56 6 16 15 28 21 28 6 0 8 5 5 10 -4 6 -2 16 3 23 6 7
13 33 17 60 5 30 15 53 27 61 12 9 16 16 9 21 -18 10 -12 23 8 18 19 -5 31 17
36 70 4 38 24 61 41 46 8 -6 14 -16 14 -22 0 -5 16 -43 35 -83 19 -40 35 -79
35 -88 0 -8 4 -17 9 -20 5 -3 14 -27 20 -52 7 -26 25 -75 42 -110 16 -35 29
-71 29 -81 0 -10 11 -36 25 -58 13 -22 25 -50 25 -62 0 -28 37 -91 61 -104 11
-5 19 -18 19 -28 0 -11 7 -22 16 -25 21 -8 20 -8 39 11 20 19 77 26 88 10 5
-7 7 -3 4 11 -6 25 8 30 17 7 7 -19 26 -20 26 -1 0 8 5 16 12 18 7 3 9 12 4
23 -6 17 -9 17 -17 5 -8 -11 -9 -4 -4 25 4 22 11 42 16 45 5 3 0 24 -11 45
-11 22 -21 56 -24 75 -6 47 -17 80 -26 80 -4 0 -16 31 -25 70 -9 38 -23 74
-31 81 -8 6 -14 19 -14 28 -1 9 -9 34 -20 56 -11 22 -19 46 -20 53 0 7 -11 37
-24 65 -13 29 -27 63 -31 77 -4 14 -12 32 -19 40 -12 16 -34 54 -48 83 -4 9
-13 27 -19 38 -6 12 -13 41 -15 66 -2 25 -14 59 -27 76 -28 40 -32 151 -7 170
9 7 16 22 17 35 1 13 16 38 33 55 27 27 31 37 27 70 -3 20 -1 35 4 32 4 -3 11
6 15 20 3 14 10 25 15 25 5 0 9 14 9 30 0 17 4 30 9 30 12 0 41 58 41 82 0 10
5 18 11 18 6 0 9 14 6 35 -4 27 -1 35 10 35 9 0 13 6 10 14 -3 8 -1 16 5 18 6
2 12 16 12 30 1 21 -1 25 -12 16 -11 -10 -11 -6 0 18 7 16 15 31 18 34 3 3 5
12 5 20 0 8 7 14 16 12 28 -4 35 36 41 226 3 89 2 94 -22 113 -30 23 -98 22
-117 -1 -9 -10 -12 -11 -13 -2 0 26 -18 10 -44 -42 -15 -29 -35 -62 -44 -72
-15 -16 -44 -88 -48 -119 -3 -29 -17 -65 -25 -65 -5 0 -9 -8 -9 -18 0 -10 -4
-22 -8 -27 -5 -6 -21 -43 -37 -83 -16 -40 -32 -75 -37 -78 -4 -3 -8 -16 -8
-29 0 -13 -5 -27 -10 -30 -6 -4 -8 -11 -4 -16 3 -5 1 -15 -4 -22 -6 -7 -12
-23 -14 -36 -6 -44 -27 -34 -54 24 -14 31 -23 59 -20 62 3 3 -1 18 -9 32 -20
38 -41 89 -60 146 -9 28 -26 70 -38 95 -12 25 -20 51 -19 58 2 6 -1 12 -6 12
-14 0 -42 63 -42 93 0 14 -6 27 -14 30 -8 3 -26 28 -41 56 -16 28 -32 48 -36
45 -5 -3 -17 0 -28 6 -13 7 -22 7 -26 0z"/>
<path d="M1650 81 c0 -6 4 -13 10 -16 6 -3 7 1 4 9 -7 18 -14 21 -14 7z"/>
</g>
</svg>
