<?xml version="1.0" standalone="no"?>
<!DOCTYPE svg PUBLIC "-//W3C//DTD SVG 20010904//EN"
 "http://www.w3.org/TR/2001/REC-SVG-20010904/DTD/svg10.dtd">
<svg version="1.0" xmlns="http://www.w3.org/2000/svg"
 width="240.000000pt" height="240.000000pt" viewBox="0 0 240.000000 240.000000"
 preserveAspectRatio="xMidYMid meet">
<metadata>
Created by potrace 1.13, written by Peter Selinger 2001-2015
</metadata>
<g transform="translate(0.000000,240.000000) scale(0.100000,-0.100000)"
fill="#000000" stroke="none">
<path d="M1215 2320 c-4 -7 -15 -10 -25 -7 -13 3 -33 -11 -65 -46 -55 -60 -63
-93 -52 -214 3 -35 1 -51 -6 -46 -6 4 -7 1 -2 -6 6 -11 14 -60 15 -101 2 -58
-9 -351 -14 -358 -3 -5 -1 -23 4 -40 4 -17 5 -44 1 -59 -4 -15 -3 -47 1 -70 6
-25 6 -55 0 -77 -6 -19 -7 -37 -4 -41 8 -8 11 -305 3 -305 -3 0 -4 -24 -2 -52
7 -83 6 -326 -1 -333 -11 -11 -33 7 -70 55 -19 25 -41 44 -49 43 -8 -1 -23 12
-34 30 -12 18 -29 32 -41 33 -12 1 -26 4 -32 8 -6 3 -13 2 -17 -4 -3 -5 -17
-10 -30 -10 -18 0 -26 -7 -31 -25 -3 -14 -12 -25 -19 -25 -22 0 -55 -54 -48
-79 3 -14 1 -26 -7 -31 -9 -5 -2 -19 24 -47 20 -22 36 -46 36 -53 0 -12 178
-190 190 -190 10 0 109 -98 104 -103 -3 -3 8 -15 25 -26 17 -12 38 -35 48 -51
24 -42 52 -48 74 -19 18 24 18 24 48 6 25 -15 32 -15 43 -4 7 8 20 12 29 10
23 -6 30 23 35 150 4 75 2 107 -5 102 -6 -3 -11 1 -11 10 0 9 4 14 8 11 13 -8
13 63 1 85 -6 13 -6 19 1 19 13 0 13 46 0 71 -7 13 -7 19 0 19 5 0 10 18 10
41 0 24 -4 38 -10 34 -5 -3 -10 3 -10 15 0 12 4 19 9 15 6 -3 6 7 0 27 -12 43
-12 115 1 123 6 3 10 46 10 95 0 49 -4 92 -10 95 -14 9 -12 43 3 48 9 3 9 11
-1 39 -10 29 -10 45 0 81 9 36 9 51 -1 73 -7 16 -8 30 -3 33 15 9 14 133 0
143 -10 6 -10 10 1 17 10 6 13 39 12 137 -1 71 -5 131 -9 134 -11 7 -11 61 -1
54 5 -3 9 2 9 10 0 8 -4 18 -10 21 -5 3 -10 21 -10 40 0 30 3 33 22 30 13 -3
25 -10 27 -17 2 -6 14 -22 26 -34 12 -12 32 -36 44 -53 12 -17 29 -31 36 -31
8 0 19 -8 24 -19 9 -15 20 -18 73 -16 92 4 127 23 127 70 0 11 3 35 7 53 8 39
-13 122 -31 122 -20 0 -75 52 -75 70 0 19 -40 60 -58 60 -7 0 -12 4 -12 10 0
9 -47 60 -55 60 -4 0 -58 51 -165 156 -37 36 -93 54 -105 34z"/>
</g>
</svg>
