<?xml version="1.0" standalone="no"?>
<!DOCTYPE svg PUBLIC "-//W3C//DTD SVG 20010904//EN"
 "http://www.w3.org/TR/2001/REC-SVG-20010904/DTD/svg10.dtd">
<svg version="1.0" xmlns="http://www.w3.org/2000/svg"
 width="240.000000pt" height="240.000000pt" viewBox="0 0 240.000000 240.000000"
 preserveAspectRatio="xMidYMid meet">
<metadata>
Created by potrace 1.13, written by Peter Selinger 2001-2015
</metadata>
<g transform="translate(0.000000,240.000000) scale(0.100000,-0.100000)"
fill="#000000" stroke="none">
<path d="M815 2330 c-4 -6 -15 -10 -24 -8 -26 4 -111 -96 -111 -130 1 -59 -10
-459 -13 -490 -2 -18 0 -35 5 -38 4 -3 5 -16 2 -29 -3 -13 -2 -31 4 -40 6 -11
4 -31 -5 -57 -7 -21 -11 -43 -8 -49 3 -5 6 -48 5 -96 -1 -155 -1 -187 4 -217
2 -16 0 -42 -4 -58 -5 -15 -5 -30 -1 -32 4 -3 6 -43 4 -90 -2 -51 1 -87 7 -91
6 -3 8 -11 4 -16 -3 -5 -8 -33 -11 -62 -7 -70 -7 -68 1 -104 4 -18 4 -33 -1
-33 -5 0 -8 -24 -6 -52 8 -135 9 -266 2 -290 -4 -15 -4 -30 1 -33 4 -3 8 -36
8 -75 0 -50 -3 -68 -12 -63 -6 4 1 -9 15 -28 15 -18 30 -32 34 -31 11 5 25
-20 25 -46 0 -38 28 -38 60 -1 18 21 29 28 30 19 1 -13 2 -13 13 0 7 8 22 20
34 27 17 10 24 9 33 -2 9 -11 9 -15 1 -15 -6 0 -11 -7 -11 -15 0 -8 7 -15 16
-15 8 0 12 5 9 10 -3 6 0 13 9 16 9 3 14 18 14 35 -1 30 -13 39 -21 17 -2 -7
-4 0 -4 15 0 16 5 31 11 33 14 6 19 91 6 99 -13 8 -13 45 0 45 6 0 10 14 10
30 0 17 -4 30 -10 30 -5 0 -10 9 -10 21 0 11 4 18 9 15 5 -3 9 11 8 32 0 20 2
92 3 160 3 99 1 125 -11 133 -11 7 -11 11 -1 17 8 5 11 27 10 60 -1 28 -6 46
-10 39 -5 -8 -8 -4 -8 10 0 12 6 23 13 26 10 3 10 9 0 26 -15 24 -17 71 -4 71
5 0 10 63 10 141 1 77 4 145 7 150 3 5 26 -11 50 -36 25 -25 54 -45 65 -45 11
0 38 -9 60 -20 22 -12 44 -18 49 -15 6 3 10 3 10 -2 0 -4 16 -9 35 -10 40 -2
82 31 77 60 -2 10 2 25 9 33 14 17 20 144 7 144 -4 0 -17 9 -28 20 -11 11 -27
20 -36 20 -9 0 -12 5 -8 12 5 7 3 8 -5 3 -14 -8 -63 14 -56 25 3 4 -17 28 -44
53 -38 35 -54 44 -71 40 -17 -4 -21 -2 -18 8 5 15 1 20 -59 67 l-43 34 0 114
c0 113 10 142 30 90 11 -30 99 -98 118 -91 17 6 54 -13 47 -25 -7 -11 24 -42
36 -35 5 4 9 11 9 16 0 6 -4 8 -9 5 -5 -3 -11 0 -14 7 -3 9 8 13 35 13 22 1
44 8 49 15 7 11 9 10 9 -4 0 -14 5 -16 28 -11 35 9 42 13 42 26 0 5 -7 8 -15
4 -8 -3 -15 -1 -15 4 0 6 7 10 15 10 8 0 15 5 15 10 0 6 7 10 15 10 8 0 15 6
15 13 0 9 11 13 30 12 22 -1 36 6 57 32 15 18 34 33 40 33 7 0 13 5 13 11 0
11 60 69 72 69 15 0 40 61 30 73 -13 16 -10 46 6 75 8 13 10 31 6 40 -4 9 -6
29 -5 44 3 30 -14 45 -34 28 -10 -9 -16 -7 -23 6 -11 19 -57 26 -84 12 -10 -4
-18 -4 -20 2 -2 6 -54 -39 -117 -100 -62 -60 -116 -110 -121 -110 -4 0 -27 17
-51 38 -48 41 -103 78 -106 71 0 -2 -11 8 -23 24 -12 15 -30 27 -41 27 -10 0
-27 9 -37 21 -36 43 -124 80 -137 59z m675 -344 c0 -2 -7 -7 -16 -10 -8 -3
-12 -2 -9 4 6 10 25 14 25 6z"/>
</g>
</svg>
