<?xml version="1.0" standalone="no"?>
<!DOCTYPE svg PUBLIC "-//W3C//DTD SVG 20010904//EN"
 "http://www.w3.org/TR/2001/REC-SVG-20010904/DTD/svg10.dtd">
<svg version="1.0" xmlns="http://www.w3.org/2000/svg"
 width="240.000000pt" height="240.000000pt" viewBox="0 0 240.000000 240.000000"
 preserveAspectRatio="xMidYMid meet">
<metadata>
Created by potrace 1.13, written by Peter Selinger 2001-2015
</metadata>
<g transform="translate(0.000000,240.000000) scale(0.100000,-0.100000)"
fill="#000000" stroke="none">
<path d="M1215 2320 c-4 -7 -15 -10 -25 -7 -13 3 -33 -11 -65 -46 -55 -60 -63
-93 -52 -214 3 -35 1 -51 -6 -46 -6 4 -7 1 -2 -6 6 -11 14 -60 15 -101 2 -58
-9 -351 -14 -358 -3 -5 -1 -23 4 -40 4 -17 5 -44 1 -59 -4 -15 -3 -47 1 -70 6
-25 6 -55 0 -77 -6 -19 -7 -37 -4 -41 8 -8 11 -305 3 -305 -3 0 -4 -24 -2 -52
7 -83 6 -326 -1 -333 -11 -11 -33 7 -70 55 -19 25 -41 44 -49 43 -8 -1 -23 12
-34 30 -11 18 -29 33 -40 33 -11 1 -24 3 -30 4 -20 5 -74 -13 -94 -31 -11 -11
-24 -19 -28 -19 -5 0 -38 -30 -73 -66 -36 -36 -105 -105 -154 -152 -174 -169
-203 -205 -193 -243 3 -11 1 -21 -3 -24 -15 -9 1 -42 31 -64 16 -12 29 -31 29
-42 0 -27 27 -35 49 -15 10 9 25 14 32 11 8 -3 29 8 47 26 29 28 32 29 32 11
0 -40 19 -32 59 22 45 60 49 71 25 62 -9 -3 -1 10 17 29 18 18 36 32 41 29 4
-3 5 3 1 13 -6 17 -5 17 15 0 20 -18 21 -18 61 23 29 30 41 51 41 71 0 16 5
29 11 29 5 0 7 -4 4 -10 -3 -5 1 -10 10 -10 9 0 42 -25 72 -55 31 -30 58 -55
62 -55 10 0 110 -98 105 -103 -3 -3 8 -15 25 -26 17 -12 38 -35 48 -51 24 -42
52 -48 74 -19 18 24 18 24 48 6 25 -15 32 -15 43 -4 7 8 20 12 29 10 23 -6 30
23 35 150 4 75 2 107 -5 102 -6 -3 -11 1 -11 10 0 9 4 14 8 11 13 -8 13 63 1
85 -6 13 -6 19 1 19 13 0 13 46 0 71 -7 13 -7 19 0 19 5 0 10 18 10 41 0 24
-4 38 -10 34 -5 -3 -10 3 -10 15 0 12 4 19 9 15 6 -3 6 7 0 27 -12 43 -12 115
1 123 6 3 10 46 10 95 0 49 -4 92 -10 95 -14 9 -12 43 3 48 9 3 9 11 -1 39
-10 29 -10 45 0 81 9 36 9 51 -1 73 -7 16 -8 30 -3 33 15 9 14 133 0 143 -10
6 -10 10 1 17 10 6 13 39 12 137 -1 71 -5 131 -9 134 -11 7 -11 61 -1 54 5 -3
9 2 9 10 0 8 -4 18 -10 21 -5 3 -10 21 -10 40 0 30 3 33 22 30 13 -3 25 -10
27 -17 2 -6 14 -22 26 -34 12 -12 32 -36 44 -53 12 -17 29 -31 36 -31 8 0 19
-9 25 -20 6 -11 17 -20 25 -20 8 0 18 -8 23 -17 9 -16 11 -16 35 0 20 13 32
14 51 7 21 -8 24 -7 19 7 -5 13 -2 15 12 9 11 -4 17 -4 13 -1 -11 12 28 42 63
49 36 7 79 37 79 54 0 6 9 14 20 17 27 9 55 62 41 79 -8 9 -4 19 14 36 l25 23
0 -21 c0 -12 5 -22 11 -22 6 0 9 11 7 23 -3 24 45 99 60 94 4 -1 26 4 48 12
42 14 72 49 60 70 -10 15 -26 14 -26 -2 0 -7 -9 -18 -20 -25 -25 -16 -26 -4 0
23 33 35 72 115 56 115 -9 0 -17 16 -21 39 -5 28 -12 41 -27 44 -12 4 -18 11
-15 19 5 14 1 14 -74 10 -35 -3 -136 -92 -209 -187 -19 -25 -40 -45 -46 -45
-6 0 -22 -12 -36 -27 -36 -39 -75 -73 -82 -73 -3 0 -6 6 -6 13 0 16 -42 57
-58 57 -7 0 -12 4 -12 10 0 9 -47 60 -55 60 -4 0 -58 51 -165 156 -37 36 -93
54 -105 34z m565 -545 c-13 -16 -40 -21 -40 -7 0 10 42 32 49 26 2 -2 -2 -10
-9 -19z"/>
</g>
</svg>
