<?xml version="1.0" standalone="no"?>
<!DOCTYPE svg PUBLIC "-//W3C//DTD SVG 20010904//EN"
 "http://www.w3.org/TR/2001/REC-SVG-20010904/DTD/svg10.dtd">
<svg version="1.0" xmlns="http://www.w3.org/2000/svg"
 width="240.000000pt" height="240.000000pt" viewBox="0 0 240.000000 240.000000"
 preserveAspectRatio="xMidYMid meet">
<metadata>
Created by potrace 1.13, written by Peter Selinger 2001-2015
</metadata>
<g transform="translate(0.000000,240.000000) scale(0.100000,-0.100000)"
fill="#000000" stroke="none">
<path d="M1630 2319 c0 -6 -4 -8 -9 -4 -5 3 -12 1 -16 -4 -3 -6 -12 -8 -20 -4
-8 3 -15 0 -15 -6 0 -9 -5 -9 -20 -1 -18 9 -20 8 -20 -15 0 -14 -4 -25 -8 -25
-14 0 -65 -197 -56 -212 5 -7 9 -51 10 -98 1 -47 3 -94 4 -105 3 -39 -6 -224
-11 -230 -4 -3 -5 -25 -2 -48 4 -42 7 -200 4 -247 -1 -19 -4 -21 -13 -12 -7 7
-22 12 -34 12 -14 0 -25 8 -29 21 -4 12 -12 18 -21 15 -9 -4 -18 3 -24 19 -11
29 -54 59 -75 51 -10 -4 -15 1 -15 14 0 11 -5 20 -11 20 -6 0 -20 11 -31 25
-11 14 -26 25 -34 25 -8 0 -14 4 -14 9 0 5 -15 19 -33 30 -18 11 -42 28 -54
38 -11 10 -46 36 -77 58 -48 34 -56 45 -56 73 0 18 -6 41 -13 52 -8 14 -9 23
-2 28 15 10 18 134 3 143 -9 6 -9 14 0 33 7 17 8 27 1 32 -7 4 -6 10 1 19 9
11 8 23 -1 50 -11 30 -11 37 1 45 11 7 12 14 3 32 -17 38 -34 119 -27 130 4 7
2 8 -4 4 -8 -4 -12 0 -12 11 0 13 -2 15 -9 5 -6 -10 -10 -10 -20 2 -7 8 -21
12 -34 9 -12 -2 -30 -6 -40 -7 -10 -1 -23 -9 -28 -17 -6 -10 -9 -10 -9 -1 0
22 -19 13 -26 -13 -3 -14 -10 -25 -14 -25 -5 0 -19 -33 -32 -74 -22 -67 -23
-77 -10 -102 11 -22 12 -35 4 -58 -12 -32 -11 -124 1 -143 4 -6 3 -23 -3 -37
-5 -14 -7 -33 -4 -41 4 -8 2 -15 -2 -15 -10 0 -10 -61 -1 -77 3 -5 3 -25 -1
-44 -8 -37 -8 -111 0 -125 3 -5 4 -34 2 -64 -2 -30 1 -67 7 -81 8 -20 7 -40
-4 -82 -8 -30 -12 -60 -8 -66 4 -6 5 -34 4 -63 -2 -29 -4 -69 -4 -88 0 -19 1
-87 1 -150 1 -63 1 -169 0 -235 -1 -66 1 -161 4 -212 3 -50 1 -106 -4 -122 -5
-17 -5 -33 0 -36 11 -7 10 -85 0 -85 -5 0 -5 -14 0 -31 5 -17 9 -34 8 -38 -3
-13 17 -47 39 -68 13 -12 23 -29 23 -36 0 -26 33 -30 52 -8 18 24 34 27 41 9
3 -10 8 -9 22 2 11 9 16 10 11 3 -4 -8 -2 -13 5 -13 6 0 9 8 6 19 -3 11 1 22
8 25 8 3 16 -3 18 -12 2 -9 3 -4 1 12 -3 22 -1 27 11 22 10 -4 15 1 15 14 0
11 5 20 10 20 6 0 10 17 8 40 -1 22 -7 40 -12 40 -6 0 -5 4 2 8 7 5 12 23 10
40 -1 17 -6 28 -10 26 -4 -3 -8 4 -8 15 0 12 5 21 10 21 14 0 13 33 -2 48 -9
9 -9 12 1 12 15 0 12 71 -4 83 -7 5 -6 10 3 15 6 5 12 19 11 33 0 13 -1 110 0
214 1 393 0 454 -9 460 -6 4 -10 17 -10 31 0 14 4 23 9 19 5 -3 11 2 13 11 3
14 7 13 31 -6 16 -13 38 -23 50 -24 12 -1 22 -8 22 -16 0 -8 15 -22 33 -31 19
-8 33 -19 32 -23 -1 -10 95 -86 109 -86 5 0 15 -9 21 -20 7 -13 21 -20 40 -20
27 0 73 -32 76 -52 1 -5 2 -12 3 -18 0 -5 13 -10 29 -10 15 -1 37 -9 50 -20
22 -18 23 -25 26 -213 2 -107 0 -200 -4 -208 -5 -7 -4 -21 1 -31 7 -13 6 -18
-2 -18 -8 0 -8 -4 -1 -12 5 -7 8 -44 5 -83 -5 -92 -5 -86 2 -120 3 -16 7 -50
8 -75 2 -50 21 -90 41 -90 8 0 19 -7 26 -15 9 -11 22 -14 42 -10 17 4 35 2 43
-5 12 -10 16 -9 21 4 4 9 20 24 36 32 22 12 29 21 25 36 -6 20 10 68 25 79 5
3 6 86 3 185 -7 250 -7 269 0 362 4 58 2 88 -6 98 -6 8 -7 14 -2 14 5 0 10 52
10 118 0 64 1 233 2 375 2 180 -1 263 -9 272 -8 10 -8 19 0 34 8 15 7 26 -2
41 -10 16 -10 22 -1 28 17 10 21 284 4 290 -6 2 -11 10 -11 18 0 9 4 13 9 10
15 -10 19 32 5 52 -7 10 -15 41 -18 68 -4 46 -35 135 -36 105 0 -12 -2 -12
-12 1 -16 19 -48 31 -48 17z"/>
</g>
</svg>
