<?xml version="1.0" standalone="no"?>
<!DOCTYPE svg PUBLIC "-//W3C//DTD SVG 20010904//EN"
 "http://www.w3.org/TR/2001/REC-SVG-20010904/DTD/svg10.dtd">
<svg version="1.0" xmlns="http://www.w3.org/2000/svg"
 width="240.000000pt" height="240.000000pt" viewBox="0 0 240.000000 240.000000"
 preserveAspectRatio="xMidYMid meet">
<metadata>
Created by potrace 1.13, written by Peter Selinger 2001-2015
</metadata>
<g transform="translate(0.000000,240.000000) scale(0.100000,-0.100000)"
fill="#000000" stroke="none">
<path d="M1205 2310 c-4 -6 -10 -8 -15 -5 -13 8 -60 -17 -60 -32 0 -7 -4 -13
-9 -13 -5 0 -12 -11 -15 -25 -4 -14 -11 -25 -17 -25 -6 0 -8 -9 -4 -20 4 -12
1 -27 -5 -35 -10 -12 -17 -97 -10 -115 6 -16 4 -173 -3 -177 -4 -2 -2 -13 3
-24 6 -10 7 -19 3 -19 -4 0 -7 -17 -6 -37 1 -21 2 -38 3 -38 1 0 3 -33 5 -72
2 -40 0 -73 -3 -73 -4 0 -25 14 -46 30 -21 16 -43 27 -49 23 -6 -3 -7 -1 -4 4
4 6 -6 19 -21 29 -26 18 -31 20 -60 23 -6 0 -11 6 -10 13 2 6 -12 12 -34 14
-22 2 -38 -2 -38 -8 0 -6 -9 -8 -21 -5 -15 4 -23 -1 -31 -19 -6 -13 -24 -29
-39 -36 -15 -7 -25 -16 -22 -21 3 -5 -1 -13 -8 -18 -11 -7 -11 -11 -1 -17 13
-9 6 -42 -9 -42 -5 0 -2 -11 7 -25 9 -14 22 -25 30 -25 7 0 16 -15 20 -34 3
-19 13 -37 21 -40 16 -6 30 -17 126 -92 31 -25 62 -42 67 -39 6 3 10 2 10 -4
0 -16 52 -62 82 -73 16 -5 26 -13 23 -18 -2 -4 1 -21 7 -38 9 -22 9 -43 1 -76
-6 -26 -6 -49 -2 -52 5 -3 9 -10 9 -15 0 -6 -4 -7 -10 -4 -5 3 -8 0 -5 -7 2
-7 7 -30 10 -52 3 -21 7 -42 10 -45 2 -4 -2 -27 -9 -52 -14 -46 -11 -109 6
-109 5 0 7 -12 3 -28 -12 -57 -15 -205 -4 -219 7 -7 7 -13 2 -13 -6 0 -9 -70
-9 -177 2 -161 4 -180 21 -200 11 -13 25 -23 32 -23 7 0 13 -11 13 -24 0 -33
27 -40 57 -16 21 16 29 18 40 8 11 -9 16 -9 24 3 5 8 9 18 9 23 0 5 3 7 6 3 4
-3 13 1 21 9 9 8 21 13 28 10 8 -3 10 4 7 20 -2 13 0 24 5 24 14 0 17 306 3
315 -12 7 -14 55 -2 55 5 0 8 29 8 65 1 36 -3 65 -8 65 -4 0 -8 5 -8 11 0 5 3
8 8 6 4 -3 8 26 9 64 2 40 -1 69 -7 69 -6 0 -10 8 -10 18 0 14 2 15 10 2 7
-11 10 -7 10 18 0 18 -6 41 -12 52 -10 16 -10 24 0 40 6 11 12 34 13 52 0 30
1 31 12 13 22 -36 67 -76 77 -70 16 10 57 -20 72 -52 14 -30 46 -42 59 -22 10
17 38 20 61 6 16 -10 22 -9 32 5 9 12 16 14 31 6 15 -9 17 -8 12 5 -4 10 0 20
10 26 14 7 15 12 4 24 -10 13 -10 21 2 42 21 41 3 123 -29 131 -13 3 -24 12
-24 20 0 7 -19 23 -42 35 -24 12 -57 37 -73 55 -17 19 -42 35 -55 38 -14 2
-24 8 -23 14 1 5 -11 15 -28 22 -16 7 -34 21 -40 32 -5 10 -14 16 -19 13 -19
-12 -37 52 -39 133 -1 54 -6 91 -15 104 -12 17 -12 25 0 54 8 18 14 48 13 66
-1 18 0 68 1 110 2 52 -1 83 -10 93 -9 11 -10 22 -3 38 16 34 16 196 1 215
-10 12 -10 14 0 8 16 -10 15 4 -4 42 -8 18 -13 36 -9 42 3 6 -1 13 -9 16 -9 3
-16 12 -16 19 0 23 -83 45 -95 25z"/>
</g>
</svg>
