<?xml version="1.0" standalone="no"?>
<!DOCTYPE svg PUBLIC "-//W3C//DTD SVG 20010904//EN"
 "http://www.w3.org/TR/2001/REC-SVG-20010904/DTD/svg10.dtd">
<svg version="1.0" xmlns="http://www.w3.org/2000/svg"
 width="240.000000pt" height="240.000000pt" viewBox="0 0 240.000000 240.000000"
 preserveAspectRatio="xMidYMid meet">
<metadata>
Created by potrace 1.13, written by Peter Selinger 2001-2015
</metadata>
<g transform="translate(0.000000,240.000000) scale(0.100000,-0.100000)"
fill="#000000" stroke="none">
<path d="M815 2320 c-3 -5 -17 -10 -30 -10 -13 0 -30 -7 -37 -16 -7 -8 -25
-29 -40 -45 -24 -28 -47 -114 -39 -144 9 -32 13 -74 11 -105 -1 -19 -3 -146
-4 -282 0 -137 -4 -248 -7 -248 -8 0 -3 -76 6 -90 3 -5 1 -18 -4 -28 -6 -11
-7 -23 -3 -27 12 -11 9 -204 -3 -197 -5 3 -4 -1 2 -9 13 -15 12 -106 -1 -179
-4 -19 -3 -48 2 -65 5 -16 5 -45 1 -63 -4 -17 -3 -34 1 -37 8 -5 5 -144 -4
-152 -2 -2 0 -18 4 -34 5 -16 5 -31 1 -33 -4 -3 -6 -24 -4 -48 5 -51 8 -203 4
-238 -6 -74 19 -150 55 -164 8 -3 14 -14 14 -25 0 -28 28 -34 57 -11 20 15 28
17 43 8 14 -9 21 -8 34 5 9 8 16 21 16 28 0 7 6 5 13 -6 13 -17 15 -17 35 3
12 12 22 30 23 39 1 40 10 68 24 76 8 4 15 15 15 22 0 8 4 15 9 15 10 0 31 77
31 117 0 16 9 36 20 46 24 20 26 37 5 37 -9 0 -12 6 -8 17 5 13 8 13 11 4 3
-8 10 3 18 24 7 20 10 44 7 52 -4 9 2 16 16 20 12 3 20 11 18 18 -3 6 3 16 12
22 10 6 28 38 41 70 13 32 29 64 36 72 11 12 15 9 27 -20 8 -19 29 -66 46
-105 17 -39 31 -75 31 -80 0 -5 7 -22 16 -39 9 -16 20 -49 25 -73 5 -24 17
-55 28 -70 10 -15 22 -38 25 -52 23 -81 76 -200 88 -200 5 0 8 -7 8 -16 0 -8
5 -12 10 -9 9 6 14 -7 11 -27 0 -4 9 -13 21 -19 19 -10 25 -8 44 16 19 24 25
27 38 16 9 -8 16 -10 16 -5 0 5 4 3 9 -4 6 -11 11 -10 25 3 9 9 16 12 16 6 0
-6 7 -11 15 -11 8 0 15 7 15 15 0 8 4 15 8 15 4 0 9 41 10 90 2 67 -1 90 -10
90 -10 0 -10 2 0 8 9 7 10 15 3 35 -7 18 -7 27 2 30 9 3 9 9 0 26 -15 25 -17
68 -3 73 6 2 10 46 10 103 1 96 -1 111 -16 164 -6 19 -4 22 7 16 11 -6 12 -5
2 6 -16 17 -16 44 -1 68 9 15 9 26 0 45 -6 14 -7 28 -2 31 5 3 9 93 9 200 0
118 -4 193 -10 190 -5 -4 -9 1 -9 9 0 8 4 17 8 20 13 8 15 216 2 232 -8 8 -11
45 -10 96 1 46 1 90 1 98 -3 42 0 65 10 71 8 5 8 13 -1 29 -8 15 -9 25 -2 29
14 8 8 328 -7 364 -6 16 -11 31 -11 35 0 4 -11 19 -24 33 -24 28 -70 42 -95
29 -9 -4 -27 -13 -41 -19 -14 -7 -36 -27 -50 -46 -14 -18 -28 -31 -32 -28 -5
2 -8 -6 -8 -19 0 -13 -5 -29 -11 -35 -6 -6 -12 -24 -14 -40 -3 -34 -25 -94
-61 -166 -8 -16 -14 -35 -14 -42 0 -7 -3 -15 -7 -17 -16 -6 -77 -151 -78 -183
0 -5 -5 -17 -10 -25 -5 -8 -21 -40 -36 -70 -26 -53 -27 -54 -34 -27 -4 15 -11
27 -16 27 -5 0 -9 8 -9 18 0 10 -8 29 -17 42 -10 14 -16 26 -14 28 4 3 -20 69
-50 137 -7 17 -13 34 -13 38 -1 4 -7 11 -14 16 -7 4 -14 19 -16 32 -4 27 -13
56 -27 82 -5 9 -16 39 -25 65 -8 26 -31 79 -50 118 -18 40 -34 76 -34 81 0 21
-94 50 -105 33z m155 -890 c0 -11 13 -48 28 -82 58 -127 70 -205 38 -233 -14
-11 -44 -91 -55 -145 -7 -34 -7 -34 -19 -13 -7 12 -12 51 -12 87 0 37 -4 66
-10 66 -5 0 -10 7 -10 15 0 8 4 15 9 15 5 0 9 37 9 83 1 199 2 227 12 227 6 0
10 -9 10 -20z m501 -50 c4 -63 3 -80 -5 -80 -5 0 -4 -6 1 -12 6 -7 8 -38 6
-68 -4 -52 -5 -92 -2 -170 2 -73 -1 -90 -16 -90 -9 0 -15 9 -15 23 0 12 -7 31
-15 41 -8 11 -15 29 -15 41 0 11 -9 38 -20 60 -11 22 -18 47 -15 56 3 10 7 37
9 61 5 55 14 78 32 78 8 0 14 7 14 15 0 8 5 15 10 15 6 0 10 11 10 25 0 30 19
34 21 5z"/>
</g>
</svg>
