<?xml version="1.0" standalone="no"?>
<!DOCTYPE svg PUBLIC "-//W3C//DTD SVG 20010904//EN"
 "http://www.w3.org/TR/2001/REC-SVG-20010904/DTD/svg10.dtd">
<svg version="1.0" xmlns="http://www.w3.org/2000/svg"
 width="240.000000pt" height="240.000000pt" viewBox="0 0 240.000000 240.000000"
 preserveAspectRatio="xMidYMid meet">
<metadata>
Created by potrace 1.13, written by Peter Selinger 2001-2015
</metadata>
<g transform="translate(0.000000,240.000000) scale(0.100000,-0.100000)"
fill="#000000" stroke="none">
<path d="M816 2323 c-4 -5 -15 -8 -25 -8 -24 0 -101 -83 -116 -125 -10 -28
-10 -43 0 -77 7 -23 10 -44 7 -47 -3 -3 -5 -19 -4 -36 0 -16 -2 -30 -6 -30 -8
0 -8 -63 1 -77 3 -5 3 -32 0 -59 -5 -42 -6 -105 -3 -166 0 -10 1 -37 0 -60 0
-24 1 -72 4 -108 2 -36 0 -72 -5 -81 -5 -9 -5 -19 -2 -23 9 -9 10 -239 1 -258
-4 -9 -4 -19 0 -22 8 -4 9 -422 2 -451 -1 -5 -1 -12 0 -15 2 -6 11 -161 11
-205 1 -16 -2 -66 -6 -110 -8 -107 -8 -122 1 -143 4 -9 8 -32 10 -49 3 -37 42
-81 76 -86 12 -2 24 -9 26 -15 2 -8 9 -7 19 4 12 12 18 13 24 3 4 -7 15 -14
23 -15 9 -1 14 1 11 6 -3 4 2 10 10 14 8 3 15 13 16 23 0 16 1 16 9 -2 8 -18
9 -18 9 6 1 28 22 79 34 79 4 0 7 38 7 85 0 50 -4 85 -10 85 -6 0 -10 35 -10
85 0 47 4 85 8 85 11 0 9 132 -2 149 -6 10 -6 16 2 19 15 5 16 126 1 154 -8
15 -8 19 0 14 6 -4 11 -3 11 3 0 5 -5 13 -10 16 -8 5 -7 11 0 20 13 16 10 77
-4 86 -5 4 -5 15 -1 25 13 31 15 97 3 111 -7 9 -7 13 1 13 9 0 12 20 11 63 -2
94 -3 93 18 74 10 -10 31 -17 46 -17 19 0 29 -7 36 -24 5 -13 21 -32 35 -43
15 -10 34 -26 43 -35 9 -10 22 -18 28 -18 7 0 14 -7 18 -15 3 -8 11 -15 17
-15 7 0 17 -7 24 -17 7 -9 23 -17 36 -18 16 -1 25 -9 29 -25 6 -24 9 -27 73
-54 20 -8 37 -19 36 -23 -4 -22 4 -33 37 -53 26 -15 40 -18 47 -11 8 8 7 11
-4 12 -7 0 -3 5 10 10 13 5 32 7 41 4 11 -3 20 1 24 10 6 18 45 12 58 -9 4 -6
10 -7 14 -3 4 4 -1 14 -12 21 -16 12 -17 15 -4 20 11 5 15 20 15 52 0 25 3 48
7 50 8 5 -22 77 -34 82 -5 2 -8 10 -8 18 0 8 -7 14 -15 14 -8 0 -15 5 -15 11
0 18 -51 58 -82 64 -18 4 -28 13 -28 25 0 10 -14 24 -32 34 -18 8 -29 16 -25
16 10 0 -35 38 -75 63 -16 10 -28 14 -28 10 0 -5 -5 0 -11 10 -6 9 -14 15 -20
12 -5 -4 -12 2 -16 12 -10 26 -65 73 -85 73 -10 0 -18 6 -18 14 0 18 -26 38
-50 40 -11 0 -19 4 -18 8 2 3 -8 18 -21 32 -17 19 -28 23 -37 16 -9 -8 -17 1
-33 33 -17 35 -21 61 -20 125 1 59 4 80 13 75 40 -25 78 -56 131 -106 33 -31
68 -57 78 -57 10 0 21 -8 24 -17 9 -23 38 -48 85 -73 20 -11 46 -33 58 -50 12
-16 28 -30 36 -30 8 0 19 -11 24 -24 13 -36 45 -51 71 -32 15 10 29 12 52 5
25 -7 35 -6 43 6 6 8 16 15 23 15 6 0 11 7 11 15 0 8 7 15 16 15 13 0 14 3 5
14 -8 9 -8 21 0 45 13 38 4 97 -16 105 -8 3 -12 12 -9 21 3 8 1 15 -5 15 -6 0
-19 8 -29 18 -11 9 -28 25 -38 34 -10 9 -35 33 -54 52 -19 20 -42 36 -51 36
-10 0 -21 5 -25 12 -5 7 -3 8 7 3 8 -5 1 4 -14 18 -15 15 -32 27 -38 27 -5 0
-9 5 -9 11 0 6 -7 8 -16 5 -10 -4 -21 4 -32 24 -9 16 -23 30 -29 30 -7 0 -13
5 -13 11 0 18 -67 79 -86 79 -10 0 -15 3 -11 6 7 7 -97 94 -112 94 -6 0 -11 7
-11 15 0 8 -7 15 -15 15 -8 0 -15 5 -15 10 0 6 -6 10 -13 10 -11 0 -19 7 -45
45 -24 34 -105 58 -126 38z"/>
</g>
</svg>
