<?xml version="1.0" standalone="no"?>
<!DOCTYPE svg PUBLIC "-//W3C//DTD SVG 20010904//EN"
 "http://www.w3.org/TR/2001/REC-SVG-20010904/DTD/svg10.dtd">
<svg version="1.0" xmlns="http://www.w3.org/2000/svg"
 width="240.000000pt" height="240.000000pt" viewBox="0 0 240.000000 240.000000"
 preserveAspectRatio="xMidYMid meet">
<metadata>
Created by potrace 1.13, written by Peter Selinger 2001-2015
</metadata>
<g transform="translate(0.000000,240.000000) scale(0.100000,-0.100000)"
fill="#000000" stroke="none">
<path d="M1214 2315 c-4 -10 -14 -15 -25 -12 -12 3 -27 -7 -45 -32 -15 -20
-36 -44 -46 -55 -11 -10 -17 -24 -14 -32 3 -8 2 -14 -3 -14 -10 0 -8 -138 3
-162 4 -9 2 -26 -4 -38 -6 -11 -11 -38 -10 -58 2 -67 7 -107 14 -123 4 -8 0
-31 -9 -52 -11 -27 -12 -43 -5 -63 6 -15 8 -59 4 -103 -3 -42 -5 -80 -5 -86 1
-5 3 -174 6 -375 3 -201 6 -376 6 -390 1 -14 -1 -36 -5 -50 -4 -14 -7 -38 -6
-55 5 -140 7 -165 13 -171 3 -4 2 -15 -4 -26 -6 -11 -9 -29 -6 -39 3 -10 1
-19 -5 -19 -5 0 -6 -5 -2 -12 4 -6 8 -48 9 -92 2 -94 9 -122 36 -136 10 -6 19
-17 19 -25 0 -20 35 -28 59 -13 17 10 25 10 49 -4 29 -17 42 -15 42 6 0 6 -5
4 -10 -4 -8 -13 -10 -13 -10 2 0 18 33 42 44 31 3 -3 6 -1 6 6 0 7 4 9 10 6
11 -7 25 39 16 54 -4 5 -2 12 2 15 13 8 14 238 2 246 -8 5 -8 15 0 34 14 38
13 119 -2 135 -11 11 -10 13 0 7 9 -6 11 3 7 36 -6 52 -6 47 1 132 5 50 3 67
-5 62 -6 -4 -11 -3 -11 3 0 5 4 13 10 16 5 3 8 23 7 44 -1 22 -5 37 -9 34 -5
-2 -8 0 -8 6 0 5 6 12 13 14 9 4 9 8 -2 15 -10 7 -11 25 -6 73 9 85 9 81 1
107 -5 13 -3 22 3 22 15 0 13 166 -2 198 -8 17 -8 25 0 30 14 9 16 152 3 152
-6 0 -10 7 -10 15 0 8 4 15 8 15 12 0 14 68 2 75 -13 8 -13 45 0 45 12 0 10
73 -2 81 -6 4 -5 15 3 27 11 17 11 28 1 55 -15 41 -15 50 -2 42 14 -9 13 18
-2 51 -10 22 -10 28 0 32 6 2 12 19 12 38 0 21 -4 33 -10 29 -5 -3 -10 -2 -10
4 0 5 6 11 13 14 10 3 10 11 0 39 -16 43 -17 71 -2 62 7 -4 10 -1 7 7 -3 8
-10 13 -16 12 -5 -1 -8 5 -6 15 6 24 -18 65 -40 68 -10 1 -22 6 -25 11 -3 4
-14 14 -23 22 -15 11 -19 11 -24 -4z"/>
</g>
</svg>
