<?xml version="1.0" standalone="no"?>
<!DOCTYPE svg PUBLIC "-//W3C//DTD SVG 20010904//EN"
 "http://www.w3.org/TR/2001/REC-SVG-20010904/DTD/svg10.dtd">
<svg version="1.0" xmlns="http://www.w3.org/2000/svg"
 width="240.000000pt" height="240.000000pt" viewBox="0 0 240.000000 240.000000"
 preserveAspectRatio="xMidYMid meet">
<metadata>
Created by potrace 1.13, written by Peter Selinger 2001-2015
</metadata>
<g transform="translate(0.000000,240.000000) scale(0.100000,-0.100000)"
fill="#000000" stroke="none">
<path d="M1205 2330 c-4 -6 -13 -9 -20 -7 -16 7 -113 -86 -144 -135 -12 -21
-27 -38 -32 -38 -5 0 -15 -15 -23 -34 -8 -19 -21 -38 -28 -42 -8 -5 -23 -22
-33 -39 -11 -16 -26 -38 -34 -47 -28 -30 -37 -43 -44 -60 -3 -10 -11 -18 -17
-18 -5 0 -10 -10 -10 -22 0 -12 -3 -19 -6 -15 -8 8 -46 -39 -62 -76 -7 -15
-17 -25 -22 -22 -6 3 -10 -3 -10 -14 0 -12 -4 -21 -10 -21 -5 0 -10 -6 -10
-14 0 -8 -15 -29 -32 -47 -18 -17 -45 -49 -59 -71 -14 -21 -29 -35 -32 -31 -4
3 -7 0 -7 -8 0 -9 -9 -25 -20 -37 -31 -32 -57 -92 -64 -142 -5 -41 -3 -49 27
-82 17 -20 40 -50 49 -67 10 -17 27 -35 38 -39 12 -4 27 -19 33 -32 7 -14 31
-37 55 -53 23 -16 42 -33 42 -39 0 -6 15 -27 33 -48 17 -21 54 -63 82 -95 27
-31 56 -70 64 -86 7 -17 23 -38 35 -47 23 -18 86 -96 86 -106 0 -13 -72 -118
-85 -122 -7 -3 -16 -16 -19 -30 -4 -13 -13 -24 -21 -24 -8 0 -15 -4 -15 -10 0
-5 -12 -23 -27 -39 -62 -66 -79 -88 -103 -136 -14 -28 -28 -52 -31 -55 -4 -3
-10 -21 -14 -40 -4 -19 -12 -40 -17 -47 -5 -7 -6 -18 -2 -24 4 -8 3 -9 -4 -5
-16 10 -15 -5 2 -26 7 -10 21 -18 30 -18 9 0 16 -4 16 -8 0 -13 48 -33 55 -22
3 5 13 6 21 3 9 -3 19 0 24 7 6 9 12 9 29 1 17 -9 21 -9 21 2 0 11 53 59 70
63 36 9 69 33 80 58 8 17 13 34 12 39 -1 4 1 6 5 5 13 -4 49 25 58 47 11 27
12 31 14 55 0 12 12 25 27 30 16 6 24 16 21 24 -3 7 3 20 14 29 22 19 15 25
101 -83 29 -36 55 -67 58 -70 3 -3 21 -25 40 -50 19 -25 41 -49 48 -54 8 -4
20 -23 28 -42 8 -20 25 -39 39 -44 15 -6 25 -17 25 -29 0 -11 10 -25 21 -32
19 -9 25 -7 43 15 11 15 28 28 37 29 10 2 24 8 32 15 12 10 17 8 31 -13 18
-28 36 -33 36 -11 0 8 5 16 12 18 9 3 8 13 -4 39 -24 51 -26 64 -5 61 21 -4
22 11 2 28 -8 7 -15 19 -15 26 0 8 -4 14 -9 14 -5 0 -12 16 -15 35 -4 21 -17
41 -31 51 -14 9 -25 24 -25 34 0 21 -27 56 -87 115 -24 22 -43 45 -43 51 0 5
-12 21 -27 36 -45 43 -58 62 -57 83 2 35 16 65 30 65 8 0 14 4 14 9 0 6 11 22
25 37 14 15 25 35 25 45 0 10 5 21 11 25 8 4 7 9 -2 15 -11 7 -7 16 19 39 17
16 32 34 32 39 0 5 6 9 13 8 33 -1 47 4 47 18 0 8 7 15 15 15 8 0 15 7 15 15
0 8 5 15 10 15 6 0 10 7 10 15 0 8 5 15 11 15 7 0 9 11 6 27 -6 33 1 53 19 53
8 0 14 9 14 20 0 11 4 20 9 20 5 0 7 -9 4 -19 -4 -16 -1 -19 16 -14 12 3 21
12 21 19 0 8 7 14 15 14 8 0 15 6 15 14 0 8 7 16 15 20 8 3 12 12 9 20 -5 14
45 46 73 46 8 0 12 4 8 9 -3 6 2 14 10 18 14 8 14 13 1 45 -13 31 -13 38 -1
48 11 9 10 19 -10 62 -22 48 -63 111 -92 143 -7 7 -13 19 -13 25 0 6 -5 8 -10
5 -6 -3 -10 2 -10 13 0 21 -24 51 -55 68 -11 6 -22 24 -23 40 -2 15 -16 39
-30 53 -15 14 -26 28 -25 32 2 4 -9 17 -22 27 -14 11 -25 25 -25 31 0 6 -3 11
-8 11 -4 0 -16 16 -26 35 -11 19 -23 35 -28 35 -4 0 -8 7 -8 15 0 8 -4 15 -10
15 -5 0 -10 7 -10 15 0 8 -4 15 -9 15 -6 0 -31 26 -56 58 -25 31 -54 66 -64
77 -10 11 -23 30 -30 43 -7 13 -20 31 -29 41 -9 9 -29 31 -43 48 -28 33 -82
52 -94 33z m70 -456 c20 -29 43 -59 53 -66 9 -7 26 -30 37 -50 11 -21 23 -38
27 -38 4 0 18 -17 32 -37 22 -35 137 -187 170 -225 44 -50 42 -58 -18 -114
-31 -29 -56 -56 -56 -61 0 -4 -22 -31 -48 -59 -61 -66 -79 -89 -121 -149 -19
-28 -44 -59 -55 -71 -12 -12 -34 -35 -49 -52 -33 -37 -47 -40 -54 -12 -3 11
-9 20 -14 20 -5 0 -9 9 -9 19 0 12 -12 24 -29 32 -29 13 -71 72 -71 100 -1 22
-53 77 -83 88 -15 6 -27 17 -27 24 0 8 -10 25 -22 39 -13 13 -29 36 -37 51 -8
15 -19 27 -25 27 -20 1 -63 54 -69 84 -5 30 10 76 25 76 4 0 8 -9 8 -20 0 -11
7 -20 15 -20 20 0 40 39 27 52 -12 12 -4 41 8 33 4 -3 11 6 14 19 5 19 11 22
31 18 20 -3 24 -1 19 12 -4 9 -1 16 6 16 7 0 10 8 7 20 -4 14 0 19 12 17 9 -1
16 1 16 5 0 4 8 13 19 21 10 8 17 20 14 27 -2 8 4 22 15 33 10 10 16 25 13 32
-7 18 17 37 38 29 12 -4 16 0 16 15 0 12 7 24 15 27 8 4 15 18 16 33 0 14 3
20 6 14 7 -18 33 -16 33 2 0 8 5 15 11 15 7 0 9 9 5 24 -14 58 23 34 79 -50z
m615 -584 c0 -5 -2 -10 -4 -10 -3 0 -8 5 -11 10 -3 6 -1 10 4 10 6 0 11 -4 11
-10z m-290 -305 c0 -8 -4 -15 -10 -15 -5 0 -7 7 -4 15 4 8 8 15 10 15 2 0 4
-7 4 -15z"/>
</g>
</svg>
