<?xml version="1.0" standalone="no"?>
<!DOCTYPE svg PUBLIC "-//W3C//DTD SVG 20010904//EN"
 "http://www.w3.org/TR/2001/REC-SVG-20010904/DTD/svg10.dtd">
<svg version="1.0" xmlns="http://www.w3.org/2000/svg"
 width="240.000000pt" height="240.000000pt" viewBox="0 0 240.000000 240.000000"
 preserveAspectRatio="xMidYMid meet">
<metadata>
Created by potrace 1.13, written by Peter Selinger 2001-2015
</metadata>
<g transform="translate(0.000000,240.000000) scale(0.100000,-0.100000)"
fill="#000000" stroke="none">
<path d="M816 2331 c-4 -6 -15 -11 -25 -11 -31 0 -116 -93 -107 -117 3 -8 3
-20 -1 -26 -12 -20 -14 -74 -10 -302 2 -88 6 -166 10 -172 4 -6 3 -22 -2 -35
-4 -12 -6 -49 -3 -80 3 -41 1 -58 -7 -58 -7 0 -9 -5 -4 -12 10 -17 10 -98 0
-98 -5 0 -5 -5 -1 -12 7 -12 16 -143 13 -198 -1 -14 -2 -51 -3 -83 0 -31 -3
-57 -6 -57 -3 0 -4 -17 -2 -37 6 -77 7 -305 1 -309 -4 -2 -3 -21 1 -41 6 -31
6 -305 0 -323 -8 -23 8 -200 21 -225 5 -11 25 -31 44 -44 19 -13 32 -27 29
-32 -8 -14 9 -10 34 7 18 13 26 13 38 3 12 -9 23 -8 57 9 23 11 52 24 65 27
13 4 21 9 18 12 -2 3 9 18 25 34 21 21 25 29 14 29 -9 0 -13 5 -10 10 4 6 14
9 23 8 9 -2 16 2 15 9 -2 6 5 12 15 12 42 2 60 6 57 11 -5 8 31 40 44 40 5 0
11 7 15 15 4 13 2 14 -14 5 -13 -7 -20 -7 -20 -1 0 20 21 22 66 6 25 -8 50
-13 55 -10 5 4 9 -1 9 -9 0 -20 28 -35 53 -28 15 4 19 1 15 -10 -4 -8 -3 -19
0 -24 12 -16 61 -44 77 -44 9 0 14 -4 11 -9 -3 -5 9 -20 26 -34 22 -19 38 -25
55 -21 12 4 23 2 23 -4 0 -13 59 -22 66 -10 3 5 17 2 30 -7 21 -14 24 -14 24
0 0 8 5 15 10 15 6 0 10 -6 10 -12 0 -7 9 4 20 25 11 21 18 42 14 48 -3 5 -1
16 6 24 7 9 8 15 0 20 -5 3 -8 20 -5 36 4 21 0 36 -15 51 -11 12 -20 27 -20
34 0 7 -9 15 -20 19 -11 3 -27 20 -37 36 -10 16 -30 35 -45 42 -16 6 -28 15
-28 19 0 5 -5 8 -10 8 -6 0 -22 12 -36 27 -13 14 -27 23 -30 20 -3 -3 -16 5
-29 19 -13 14 -27 24 -31 23 -21 -4 -34 2 -34 14 0 19 -42 53 -81 65 -37 11
-74 10 -101 -2 -9 -4 -22 -5 -28 -1 -5 3 -13 -1 -16 -9 -3 -9 -13 -16 -21 -16
-8 0 -31 -16 -50 -35 -19 -19 -41 -35 -49 -35 -7 0 -17 -6 -21 -12 -4 -7 -18
-19 -30 -26 -21 -11 -23 -10 -23 11 0 13 -5 28 -11 34 -8 8 -8 20 0 45 11 34
8 216 -5 277 -5 24 -3 32 5 27 6 -4 11 -1 11 8 0 8 -5 18 -10 21 -8 5 -8 11 0
20 13 16 12 215 -1 215 -5 0 -9 7 -9 15 0 8 4 15 8 15 13 0 13 299 1 323 -8
14 -8 18 0 13 6 -4 11 -1 11 8 0 8 -6 17 -12 19 -10 4 -10 7 -1 14 8 6 9 14 3
23 -14 22 -12 98 3 103 10 4 10 7 0 18 -15 15 -17 59 -4 59 12 0 13 108 0 131
-6 12 -6 19 0 19 5 0 16 3 25 6 10 4 16 1 16 -8 0 -21 33 -48 59 -48 12 0 20
-4 17 -9 -6 -9 18 -32 71 -69 38 -26 49 -27 57 -6 5 13 15 15 41 11 23 -4 38
-1 46 9 6 7 15 11 20 9 8 -5 47 12 59 26 7 8 43 22 60 23 8 1 14 7 12 14 -1 6
4 12 11 12 7 0 20 9 30 20 9 11 24 20 32 20 9 0 13 5 10 10 -3 6 3 10 13 10
11 0 22 9 25 20 4 14 10 18 23 13 12 -4 15 -3 10 5 -5 8 0 12 13 12 12 0 21 7
21 15 0 8 5 15 11 15 6 0 9 9 6 19 -5 21 28 60 40 48 3 -4 0 -7 -7 -7 -7 0
-11 -3 -8 -6 7 -7 48 18 48 29 0 4 -4 6 -8 3 -12 -7 -2 52 14 83 7 14 10 28 6
31 -5 3 -9 14 -9 25 -4 77 -20 87 -113 73 -50 -8 -70 -16 -85 -34 -11 -14 -27
-26 -36 -27 -9 -2 -30 -14 -46 -27 -17 -14 -41 -32 -53 -40 -13 -8 -30 -23
-39 -32 -8 -10 -20 -18 -26 -18 -6 0 -23 -12 -38 -26 -24 -22 -32 -25 -50 -15
-37 18 -60 35 -81 58 -12 12 -43 34 -71 47 -27 14 -45 26 -40 26 13 0 -55 59
-77 66 -10 3 -18 9 -18 13 0 19 -105 48 -114 32z m724 -351 c0 -5 -5 -10 -11
-10 -5 0 -7 5 -4 10 3 6 8 10 11 10 2 0 4 -4 4 -10z"/>
</g>
</svg>
