<?xml version="1.0" standalone="no"?>
<!DOCTYPE svg PUBLIC "-//W3C//DTD SVG 20010904//EN"
 "http://www.w3.org/TR/2001/REC-SVG-20010904/DTD/svg10.dtd">
<svg version="1.0" xmlns="http://www.w3.org/2000/svg"
 width="600.000000pt" height="600.000000pt" viewBox="0 0 600.000000 600.000000"
 preserveAspectRatio="xMidYMid meet">
<metadata>
Created by potrace 1.16, written by Peter Selinger 2001-2019
</metadata>
<g transform="translate(0.000000,600.000000) scale(0.100000,-0.100000)"
fill="#000000" stroke="none">
<path d="M2703 4078 c4 -661 7 -1728 7 -2371 l0 -1170 299 6 c293 5 300 6 322
28 l22 22 -6 1406 c-4 773 -10 1828 -14 2344 l-6 937 -315 0 -315 0 6 -1202z
m571 1110 c3 -24 8 -725 11 -1558 3 -833 8 -1856 12 -2272 l6 -758 -265 0
-265 0 -6 1053 c-6 812 -11 3529 -8 3570 1 4 115 7 255 7 l255 0 5 -42z"/>
</g>
</svg>
