<?xml version="1.0" standalone="no"?>
<!DOCTYPE svg PUBLIC "-//W3C//DTD SVG 20010904//EN"
 "http://www.w3.org/TR/2001/REC-SVG-20010904/DTD/svg10.dtd">
<svg version="1.0" xmlns="http://www.w3.org/2000/svg"
 width="429.000000pt" height="774.000000pt" viewBox="0 0 429.000000 774.000000"
 preserveAspectRatio="xMidYMid meet">
<metadata>
Created by potrace 1.16, written by Peter Selinger 2001-2019
</metadata>
<g transform="translate(0.000000,774.000000) scale(0.100000,-0.100000)"
fill="#000000" stroke="none">
<path d="M3930 7252 l-75 -3 -775 -720 -775 -720 -3 718 -2 719 -158 -4 c-86
-2 -158 -6 -160 -7 -2 -2 -6 -299 -9 -662 -3 -362 -8 -673 -12 -691 l-6 -33
-725 672 c-399 369 -739 685 -757 701 l-31 30 -91 -7 -91 -7 0 -2832 c0 -1558
3 -3090 7 -3404 l6 -572 68 0 67 0 774 717 773 717 6 -190 c4 -104 7 -422 8
-708 l1 -519 31 7 c17 3 85 6 150 6 99 0 119 3 119 15 0 8 7 15 15 15 13 0 15
84 15 695 0 382 2 695 5 695 3 0 351 -326 773 -725 l767 -725 81 0 81 0 6
1697 c9 2273 9 5133 0 5131 -5 -1 -42 -4 -83 -6z m-2696 -810 l781 -724 9 730
8 730 22 6 c11 3 58 6 103 6 l83 0 2 -756 3 -756 814 755 c727 675 818 756
853 762 22 4 43 3 48 -1 4 -5 5 -1518 2 -3361 l-5 -3353 -42 0 -43 0 -808 764
-809 764 -6 -740 c-4 -407 -9 -742 -12 -745 -3 -2 -51 -7 -106 -10 l-101 -6
-1 49 c-1 27 -5 362 -8 743 l-6 695 -809 -750 c-620 -575 -816 -751 -843 -758
-19 -4 -36 -7 -38 -5 -2 2 -5 1512 -6 3354 l-3 3350 49 5 c36 4 55 1 69 -10
11 -8 371 -340 800 -738z"/>
<path d="M567 6378 c-4 -182 -7 -453 -7 -602 l0 -271 369 -369 368 -368 320
310 c286 278 320 314 320 342 0 29 -56 83 -646 629 -355 328 -662 612 -682
629 l-36 31 -6 -331z m695 -378 l626 -579 -166 -163 c-92 -90 -224 -219 -294
-287 l-127 -124 -346 339 -347 339 6 284 c3 156 6 394 6 528 0 133 4 243 8
243 4 0 290 -261 634 -580z"/>
<path d="M3013 6066 c-387 -356 -703 -648 -703 -650 0 -2 146 -140 325 -307
256 -239 331 -304 352 -304 21 -1 63 34 208 175 99 96 260 251 358 344 l177
169 -1 336 c-1 185 -4 459 -8 610 l-6 274 -702 -647z m660 -29 l3 -517 -342
-335 -342 -335 -301 282 -302 282 38 37 c21 21 308 286 638 589 425 391 601
546 602 533 1 -10 4 -251 6 -536z"/>
<path d="M3450 4911 c-151 -156 -276 -286 -278 -290 -3 -8 494 -461 505 -461
5 0 18 8 31 18 l22 17 -2 499 -3 499 -275 -282z m223 -258 c-3 -219 -5 -401
-6 -406 -2 -7 -410 358 -415 371 -3 9 406 432 418 432 4 0 6 -179 3 -397z"/>
<path d="M560 4654 l0 -489 26 -12 c26 -12 34 -5 280 228 140 133 254 242 254
244 0 1 -102 96 -227 211 -126 115 -252 231 -280 258 l-53 49 0 -489z m275
161 l207 -190 -128 -123 c-71 -68 -168 -159 -216 -204 l-88 -80 0 397 c0 222
4 395 9 393 5 -1 102 -88 216 -193z"/>
<path d="M2273 5086 l-23 -11 1 -515 0 -515 279 285 c154 157 280 288 280 291
0 4 -98 96 -217 206 -313 286 -294 271 -320 259z m253 -273 l215 -197 -213
-213 c-117 -117 -216 -213 -220 -213 -5 0 -8 185 -8 410 0 226 3 410 6 410 3
0 102 -89 220 -197z"/>
<path d="M1714 4853 c-137 -123 -250 -229 -252 -236 -1 -7 125 -139 280 -294
l283 -283 -2 418 c-1 229 -5 458 -8 507 -6 81 -9 91 -29 101 -21 10 -44 -9
-272 -213z m246 34 c0 -57 3 -241 6 -408 l6 -304 -216 215 c-119 118 -215 220
-214 226 3 12 399 372 411 373 4 1 7 -46 7 -102z"/>
<path d="M978 4163 c-262 -248 -303 -290 -303 -316 0 -25 37 -64 280 -290 154
-144 292 -273 308 -286 l29 -24 299 299 c164 164 298 302 297 306 -2 3 -139
140 -305 302 l-302 296 -303 -287z m574 -52 l263 -260 -265 -265 -265 -264
-275 258 c-151 142 -275 262 -275 268 0 11 535 521 547 522 4 0 126 -117 270
-259z"/>
<path d="M2695 4145 l-300 -294 290 -290 c197 -198 293 -287 300 -281 7 6 16
5 23 -2 8 -8 91 66 317 282 168 161 305 296 303 300 -3 9 -625 580 -630 580
-2 -1 -138 -133 -303 -295z m581 -32 c148 -136 270 -250 272 -254 3 -7 -531
-521 -546 -527 -4 -1 -124 115 -267 259 l-260 261 260 254 c143 140 263 254
266 254 4 0 127 -111 275 -247z"/>
<path d="M1719 3363 l-277 -266 264 -237 c251 -226 265 -238 289 -227 l25 12
0 416 c0 397 -6 570 -19 568 -3 0 -130 -120 -282 -266z m244 -260 c3 -216 2
-393 -1 -393 -13 0 -433 383 -430 392 5 14 423 408 425 400 1 -4 4 -184 6
-399z"/>
<path d="M2273 3606 l-23 -11 0 -518 0 -519 98 89 c53 49 176 160 272 247 96
87 183 166 192 175 17 15 1 33 -250 282 -246 245 -269 265 -289 255z m419
-572 c-31 -28 -129 -117 -217 -197 l-160 -145 -6 141 c-4 78 -7 268 -8 422
l-1 280 225 -225 224 -224 -57 -52z"/>
<path d="M3431 3341 l-283 -256 60 -55 c33 -30 152 -144 265 -253 184 -177
208 -197 231 -191 l26 6 -1 342 c-1 187 -5 413 -8 502 l-6 161 -284 -256z
m239 -43 c0 -95 3 -279 6 -408 l7 -235 -64 60 c-35 33 -137 130 -226 215
l-163 156 213 191 c116 106 215 192 220 193 4 0 7 -78 7 -172z"/>
<path d="M566 3488 c-9 -126 -13 -949 -5 -946 4 2 125 118 270 258 236 227
264 258 264 286 0 29 -22 51 -235 239 -129 114 -247 218 -261 232 l-27 25 -6
-94z m284 -228 c102 -90 185 -169 185 -176 0 -7 -94 -103 -210 -214 l-210
-201 -4 33 c-1 18 0 196 4 396 l7 363 22 -19 c11 -10 104 -92 206 -182z"/>
<path d="M930 2562 c-201 -196 -364 -363 -364 -369 1 -7 -2 -13 -7 -13 -10 0
-10 -506 0 -937 l6 -271 698 651 c383 359 698 656 700 662 2 8 -652 635 -663
635 -3 0 -169 -161 -370 -358z m671 1 l292 -277 -44 -40 c-24 -23 -309 -289
-633 -591 -324 -303 -592 -551 -597 -553 -7 -3 -12 326 -14 977 l0 89 345 336
c189 185 347 336 351 336 4 0 139 -125 300 -277z"/>
<path d="M2647 2606 c-186 -173 -338 -318 -336 -323 1 -4 308 -292 681 -639
628 -583 681 -631 702 -621 23 11 23 15 29 236 4 123 7 387 7 587 0 353 -1
363 -20 377 -11 8 -175 168 -365 356 -189 187 -347 341 -352 341 -4 0 -160
-142 -346 -314z m1029 -601 c-3 -93 -6 -336 -6 -538 0 -210 -4 -367 -9 -365
-19 7 -1266 1173 -1266 1184 0 6 134 135 298 288 l299 276 344 -337 345 -338
-5 -170z"/>
</g>
</svg>
