<?xml version="1.0" standalone="no"?>
<!DOCTYPE svg PUBLIC "-//W3C//DTD SVG 20010904//EN"
 "http://www.w3.org/TR/2001/REC-SVG-20010904/DTD/svg10.dtd">
<svg version="1.0" xmlns="http://www.w3.org/2000/svg"
 width="240.000000pt" height="240.000000pt" viewBox="0 0 240.000000 240.000000"
 preserveAspectRatio="xMidYMid meet">
<metadata>
Created by potrace 1.13, written by Peter Selinger 2001-2015
</metadata>
<g transform="translate(0.000000,240.000000) scale(0.100000,-0.100000)"
fill="#000000" stroke="none">
<path d="M810 2316 c-6 -6 -20 -11 -33 -11 -12 0 -22 -6 -23 -12 -1 -7 -2 -18
-3 -24 0 -5 -5 -8 -10 -4 -5 3 -21 -10 -36 -29 -23 -31 -36 -83 -37 -156 -1
-30 11 -120 16 -129 4 -5 2 -12 -2 -15 -5 -3 -8 -48 -8 -101 1 -52 -1 -95 -4
-95 -4 0 -5 -15 -3 -32 2 -18 4 -127 5 -243 1 -374 1 -428 -2 -510 -1 -33 -1
-62 0 -65 7 -21 4 -300 -3 -300 -6 0 -6 -5 0 -13 5 -6 8 -43 6 -82 -4 -90 -3
-139 1 -198 2 -26 0 -50 -4 -52 -4 -3 -4 -21 0 -40 5 -20 4 -33 -1 -29 -5 3
-9 0 -9 -5 0 -6 5 -11 11 -11 6 0 8 -7 5 -17 -4 -10 -4 -14 0 -10 11 11 64
-44 64 -65 0 -31 29 -33 59 -4 15 14 29 24 32 22 11 -12 58 -13 63 -3 3 9 5 9
5 0 1 -7 8 -13 17 -13 8 0 12 5 9 10 -3 6 4 10 15 10 16 0 20 5 16 15 -3 8 0
15 5 15 6 0 9 9 6 20 -3 11 2 25 11 32 13 11 15 10 10 -3 -5 -12 0 -17 18 -16
13 0 22 3 19 6 -2 4 14 23 36 41 37 33 58 68 22 39 -15 -13 -15 -12 -4 9 9 16
16 20 24 13 7 -6 26 -6 47 -1 19 4 31 8 26 9 -5 1 3 13 17 27 15 15 31 23 38
18 8 -4 9 -3 5 4 -5 8 1 12 18 12 17 0 31 10 45 33 24 40 77 80 93 71 7 -4 8
-3 4 4 -4 7 3 14 18 18 21 5 24 9 16 24 -12 22 -1 34 17 19 9 -8 13 -8 13 0 0
6 14 17 30 26 19 10 30 23 30 36 0 19 1 19 16 5 19 -19 25 -20 22 -4 -2 7 11
15 27 19 17 4 26 7 21 8 -25 3 73 75 104 76 8 0 14 6 12 13 -1 6 2 12 8 12 16
0 12 40 -4 46 -15 6 -13 20 7 62 7 15 7 26 2 30 -12 8 -49 84 -47 94 1 3 -16
22 -38 42 -26 24 -45 33 -56 29 -11 -4 -15 -2 -11 4 8 12 -77 91 -108 100 -11
3 -38 26 -59 50 -32 36 -37 46 -25 53 41 26 89 75 85 87 -9 21 25 29 39 9 8
-11 15 -13 20 -7 3 6 3 11 0 11 -3 0 4 10 17 23 13 12 23 29 23 37 0 8 10 16
23 18 13 2 26 10 29 19 3 8 9 10 12 5 3 -5 21 -7 38 -5 18 3 30 9 28 14 -3 4
2 12 11 17 14 8 15 14 4 43 -10 28 -9 39 4 64 8 16 12 32 8 35 -4 3 -8 23 -10
45 -2 33 -10 47 -49 83 -28 24 -57 42 -71 42 -37 0 -60 17 -82 60 -11 22 -27
40 -35 40 -8 0 -15 7 -15 15 0 8 -7 16 -15 16 -8 1 -19 2 -23 3 -13 2 -42 33
-42 46 0 6 -5 8 -11 5 -6 -4 -13 2 -15 13 -4 12 -20 24 -45 31 -23 7 -39 18
-39 27 0 18 -25 45 -45 48 -8 1 -24 14 -35 29 -12 15 -28 27 -35 27 -8 0 -40
27 -72 60 -32 33 -62 59 -68 56 -13 -5 -36 13 -51 39 -6 11 -21 21 -33 23 -11
2 -21 9 -21 17 0 7 -7 15 -15 19 -8 3 -15 0 -15 -7 0 -8 -3 -9 -8 -1 -10 16
-59 23 -72 10z m170 -451 c7 -8 21 -15 31 -15 10 0 26 -13 35 -29 10 -16 28
-34 41 -40 12 -6 23 -15 23 -21 0 -12 55 -41 63 -33 9 9 38 -18 47 -43 5 -13
21 -25 40 -29 16 -4 38 -18 48 -31 9 -14 27 -38 40 -54 27 -34 28 -46 5 -54
-10 -3 -27 -12 -38 -19 -11 -7 -41 -25 -67 -41 -27 -15 -48 -32 -48 -37 0 -5
-8 -13 -17 -17 -10 -4 -37 -20 -60 -35 -33 -23 -55 -29 -110 -32 l-70 -4 3 57
c1 31 -3 63 -9 70 -8 10 -7 16 1 21 8 5 11 59 11 181 0 223 -1 220 10 220 5 0
14 -7 21 -15z m82 -819 c5 -9 18 -16 29 -16 31 0 59 -19 59 -39 0 -19 167
-161 189 -161 6 0 20 -5 30 -12 16 -9 17 -16 8 -35 -5 -13 -17 -23 -24 -23
-16 0 -98 -62 -125 -95 -10 -11 -18 -16 -18 -12 0 5 -13 -2 -30 -15 -16 -12
-57 -43 -90 -68 -34 -25 -75 -57 -93 -72 -17 -16 -35 -28 -39 -28 -5 0 -9 26
-9 58 -3 123 -4 147 -12 160 -5 7 -5 18 0 25 7 11 9 32 3 47 -8 22 -8 50 0 50
6 0 10 45 10 115 0 114 0 114 27 129 34 17 73 14 85 -8z m648 -330 c0 -3 -4
-8 -10 -11 -5 -3 -10 -1 -10 4 0 6 5 11 10 11 6 0 10 -2 10 -4z"/>
</g>
</svg>
