<?xml version="1.0" standalone="no"?>
<!DOCTYPE svg PUBLIC "-//W3C//DTD SVG 20010904//EN"
 "http://www.w3.org/TR/2001/REC-SVG-20010904/DTD/svg10.dtd">
<svg version="1.0" xmlns="http://www.w3.org/2000/svg"
 width="240.000000pt" height="240.000000pt" viewBox="0 0 240.000000 240.000000"
 preserveAspectRatio="xMidYMid meet">
<metadata>
Created by potrace 1.13, written by Peter Selinger 2001-2015
</metadata>
<g transform="translate(0.000000,240.000000) scale(0.100000,-0.100000)"
fill="#000000" stroke="none">
<path d="M814 2328 c-3 -5 -14 -8 -23 -6 -10 2 -33 -14 -54 -36 -21 -21 -37
-35 -38 -30 -1 19 -18 -33 -18 -58 -1 -16 -5 -28 -10 -28 -4 0 -5 -18 -1 -40
4 -22 6 -60 4 -83 -6 -87 -6 -134 0 -197 4 -36 3 -86 -2 -112 -5 -26 -7 -50
-3 -54 5 -5 9 -68 10 -159 0 -20 -8 -255 -9 -285 -1 -20 4 -42 13 -56 4 -7 0
-33 -7 -58 -9 -28 -12 -71 -10 -107 9 -110 9 -219 1 -219 -5 0 -5 -6 0 -12 6
-10 15 -237 14 -358 -2 -109 -8 -207 -14 -217 -4 -6 -2 -15 4 -18 5 -4 8 -14
5 -22 -4 -10 7 -28 29 -49 19 -18 35 -39 35 -47 0 -19 23 -38 36 -29 6 4 14
15 17 26 5 12 14 17 27 13 11 -3 20 -1 20 4 0 5 11 7 24 3 18 -4 25 -1 29 13
4 16 5 16 6 1 1 -19 31 -26 31 -7 0 5 4 8 8 5 4 -2 9 9 10 25 1 18 -3 32 -12
35 -7 3 -13 16 -12 29 1 16 5 20 12 14 15 -12 13 69 -2 95 -7 11 -8 32 -3 54
4 19 5 41 2 48 -3 8 -1 14 4 14 12 0 10 97 -2 124 -5 12 -3 21 6 27 11 6 11
11 1 21 -14 14 -17 78 -3 78 4 0 8 12 8 28 0 15 0 117 1 227 1 291 0 309 -12
317 -8 5 -7 8 2 8 9 0 12 30 11 125 0 69 -5 127 -10 131 -11 7 -12 64 -1 64 5
0 10 45 11 100 1 75 -1 100 -10 100 -10 0 -10 3 -1 12 7 7 12 37 12 67 0 30 3
51 7 48 3 -4 12 -2 18 3 14 12 31 -4 37 -35 2 -13 13 -21 32 -23 17 -2 30 -11
33 -22 5 -19 29 -34 43 -25 4 3 7 -2 6 -11 -2 -30 30 -41 67 -21 20 11 45 16
61 13 15 -3 37 -1 49 3 12 5 25 9 30 10 4 0 18 12 31 26 13 14 28 25 34 25 5
0 13 7 16 16 3 8 10 12 16 9 5 -3 10 1 10 10 0 10 7 15 18 13 15 -3 17 -16 17
-101 0 -53 -2 -97 -5 -97 -4 0 -5 -86 -1 -300 1 -30 1 -107 0 -170 0 -63 1
-132 4 -152 3 -21 1 -38 -5 -38 -5 0 -6 -5 -3 -11 4 -6 6 -36 5 -67 -1 -31 -1
-66 -1 -77 5 -150 4 -405 -2 -405 -5 0 -5 -5 -2 -11 11 -16 12 -178 2 -182 -4
-1 -3 -15 2 -30 6 -16 11 -42 11 -58 0 -37 16 -69 34 -69 8 0 16 -6 19 -14 6
-16 52 -27 64 -15 4 4 25 4 46 -1 32 -7 37 -6 33 6 -3 8 7 27 24 43 17 15 30
33 30 40 0 6 4 11 9 11 13 0 14 807 1 815 -7 4 -6 14 1 27 16 31 15 634 -2
654 -8 10 -9 18 -3 22 15 10 16 54 2 80 -9 18 -9 25 -1 30 15 10 14 172 -1
191 -8 11 -8 13 2 7 16 -9 17 66 1 96 -6 11 -7 23 -3 27 15 11 15 37 -1 67 -8
16 -15 33 -15 37 0 5 -12 26 -27 47 -28 38 -29 38 -83 34 -35 -3 -64 -11 -80
-24 -14 -11 -49 -36 -77 -55 -29 -20 -60 -43 -70 -53 -10 -10 -48 -39 -85 -65
-61 -43 -68 -46 -98 -36 -17 6 -29 14 -26 16 9 10 -22 33 -44 33 -13 0 -27 11
-38 30 -12 21 -22 28 -34 24 -12 -3 -18 0 -18 9 0 16 -34 49 -46 45 -5 -2 -11
2 -13 7 -5 13 -42 39 -60 42 -8 1 -17 7 -21 13 -10 16 -79 30 -86 18z"/>
</g>
</svg>
