<?xml version="1.0" standalone="no"?>
<!DOCTYPE svg PUBLIC "-//W3C//DTD SVG 20010904//EN"
 "http://www.w3.org/TR/2001/REC-SVG-20010904/DTD/svg10.dtd">
<svg version="1.0" xmlns="http://www.w3.org/2000/svg"
 width="240.000000pt" height="240.000000pt" viewBox="0 0 240.000000 240.000000"
 preserveAspectRatio="xMidYMid meet">
<metadata>
Created by potrace 1.13, written by Peter Selinger 2001-2015
</metadata>
<g transform="translate(0.000000,240.000000) scale(0.100000,-0.100000)"
fill="#000000" stroke="none">
<path d="M1546 2318 c-9 -5 -22 -8 -29 -6 -13 3 -44 -20 -159 -119 -33 -29
-64 -53 -68 -53 -3 0 -13 -11 -20 -25 -7 -14 -19 -25 -26 -25 -7 0 -17 -8 -23
-17 -8 -14 -13 -15 -35 -5 -15 6 -30 22 -35 34 -11 29 -59 71 -72 63 -5 -4 -8
-3 -7 2 5 15 -68 73 -91 73 -12 0 -21 6 -21 16 0 17 -24 45 -43 48 -6 1 -27 6
-45 10 -46 11 -129 -10 -137 -35 -4 -10 -10 -19 -15 -19 -16 0 -53 -131 -43
-156 5 -12 3 -15 -6 -9 -10 6 -11 2 -5 -16 8 -26 12 -439 4 -434 -3 2 -4 -25
-2 -58 8 -162 6 -745 -2 -740 -5 4 -6 1 -2 -6 12 -19 16 -109 7 -157 -5 -25
-5 -47 0 -50 5 -3 9 -10 9 -15 0 -6 -5 -7 -12 -3 -7 5 -8 3 -2 -7 10 -17 13
-359 3 -359 -4 0 -3 -17 1 -37 5 -20 7 -40 4 -44 -2 -4 12 -24 31 -45 19 -21
35 -43 35 -49 0 -17 21 -34 36 -28 8 3 14 9 14 14 0 4 -7 6 -15 3 -8 -4 -15
-3 -15 0 0 12 53 27 69 20 9 -4 27 -9 41 -11 23 -3 24 -2 7 11 -18 14 -18 15
1 25 11 6 22 8 24 5 7 -7 48 -14 48 -8 0 3 -10 9 -22 14 -16 6 -18 9 -7 9 22
1 25 12 28 104 1 53 -2 84 -11 95 -7 9 -8 13 -2 10 6 -4 10 6 11 28 1 19 -3
37 -8 40 -5 3 -9 19 -9 35 0 18 4 28 10 24 13 -8 13 1 -2 25 -9 14 -9 24 0 42
14 28 12 502 -2 532 -7 15 -6 17 4 11 10 -6 11 -3 5 16 -4 13 -7 33 -6 44 1
11 4 47 6 80 2 33 4 63 4 68 1 13 28 8 41 -8 7 -9 22 -14 34 -13 11 2 21 -2
21 -8 0 -19 63 -74 84 -74 12 0 21 -6 21 -14 0 -23 27 -26 46 -5 10 12 26 18
36 16 10 -3 32 0 49 6 22 9 32 9 37 0 5 -7 19 2 40 28 18 21 28 39 22 39 -6 0
-8 5 -5 10 5 8 12 7 23 -2 11 -10 16 -10 19 -1 2 7 12 9 21 6 9 -3 14 -3 10 2
-4 4 18 27 48 52 29 24 54 49 54 55 0 6 7 7 18 3 9 -4 23 -9 30 -12 6 -3 12 0
12 7 0 16 25 40 42 40 7 0 19 9 26 20 10 17 10 23 -3 36 -19 19 -19 18 2 61
11 24 13 37 5 42 -6 3 -12 22 -14 41 -2 23 -8 35 -18 35 -8 0 -18 6 -21 14 -7
17 -67 25 -84 11 -7 -6 -17 -10 -21 -9 -22 4 -34 -2 -34 -16 0 -9 -9 -15 -24
-15 -16 0 -27 -7 -31 -20 -3 -11 -13 -20 -22 -20 -8 0 -37 -18 -63 -40 -26
-22 -52 -40 -58 -40 -5 0 -15 -7 -22 -15 -17 -21 -46 -19 -70 5 -11 11 -25 20
-30 20 -6 0 -21 10 -34 23 -40 38 -70 61 -101 77 -16 9 -43 27 -58 42 -27 25
-28 28 -25 124 3 91 5 99 23 99 13 0 21 -8 23 -23 2 -14 14 -27 30 -34 77 -31
99 -42 118 -59 19 -18 23 -18 52 -3 17 8 34 19 37 25 4 5 17 9 31 9 13 0 29 9
36 20 7 11 17 20 23 20 6 0 18 9 28 20 9 11 22 20 28 20 7 0 5 -8 -5 -19 -15
-17 -15 -19 -1 -25 9 -3 18 1 21 9 4 8 13 15 21 15 8 0 12 4 8 9 -9 16 58 71
79 65 13 -4 16 -2 11 6 -4 7 1 13 14 17 12 3 21 11 21 17 0 20 41 58 57 52 8
-3 11 -1 8 4 -3 6 0 10 8 10 18 0 44 30 49 55 2 13 -2 19 -11 17 -11 -2 -12 0
-3 11 7 8 10 16 7 19 -3 3 2 21 10 41 8 21 11 37 6 37 -5 0 -7 20 -6 45 3 40
1 45 -18 44 -12 0 -38 4 -58 9 -22 6 -43 6 -53 0z m109 -868 c-3 -5 -12 -10
-18 -10 -7 0 -6 4 3 10 19 12 23 12 15 0z"/>
<path d="M900 91 c0 -10 19 -25 25 -20 1 2 -3 10 -11 17 -8 7 -14 8 -14 3z"/>
</g>
</svg>
