<?xml version="1.0" standalone="no"?>
<!DOCTYPE svg PUBLIC "-//W3C//DTD SVG 20010904//EN"
 "http://www.w3.org/TR/2001/REC-SVG-20010904/DTD/svg10.dtd">
<svg version="1.0" xmlns="http://www.w3.org/2000/svg"
 width="240.000000pt" height="240.000000pt" viewBox="0 0 240.000000 240.000000"
 preserveAspectRatio="xMidYMid meet">
<metadata>
Created by potrace 1.13, written by Peter Selinger 2001-2015
</metadata>
<g transform="translate(0.000000,240.000000) scale(0.100000,-0.100000)"
fill="#000000" stroke="none">
<path d="M805 2369 c6 -18 4 -20 -14 -14 -15 5 -21 2 -21 -9 0 -9 -9 -16 -20
-16 -11 0 -20 -7 -20 -15 0 -8 -4 -15 -10 -15 -5 0 -10 -8 -11 -17 0 -11 -3
-13 -6 -5 -2 6 -9 12 -15 12 -6 0 -7 -7 -4 -16 4 -9 1 -23 -5 -30 -6 -7 -12
-36 -12 -64 -1 -27 -5 -50 -9 -50 -5 0 -8 5 -8 10 0 6 -5 10 -11 10 -10 0 -3
-40 10 -50 3 -3 6 -11 7 -17 1 -7 2 -20 3 -30 0 -9 20 -33 43 -55 23 -21 38
-41 34 -45 -4 -4 -11 -1 -16 7 -5 8 -11 12 -14 9 -8 -8 5 -49 16 -49 5 0 6 -5
3 -11 -8 -12 22 -49 40 -49 16 0 27 -27 15 -35 -6 -4 -10 -1 -10 4 0 6 -4 11
-10 11 -19 0 -10 -19 23 -52 40 -41 51 -64 31 -72 -23 -9 -16 -28 9 -22 12 3
16 3 10 0 -19 -9 -15 -24 6 -24 11 0 21 -9 24 -22 7 -27 -1 -38 -13 -18 -5 8
-13 11 -17 6 -4 -4 4 -18 20 -31 27 -24 35 -45 17 -45 -5 0 -18 -20 -29 -45
-11 -25 -26 -45 -34 -45 -16 0 -30 -27 -21 -41 3 -5 -2 -9 -11 -9 -11 0 -15
-6 -11 -18 5 -13 -1 -22 -19 -30 -17 -8 -25 -19 -25 -38 0 -17 -6 -28 -18 -31
-14 -3 -22 -21 -30 -66 -7 -36 -19 -67 -29 -74 -23 -18 -10 -27 19 -13 21 10
21 10 6 -3 -22 -17 -23 -27 -3 -27 20 0 39 -37 23 -42 -17 -6 14 -38 36 -38
18 0 30 -16 17 -24 -5 -4 -11 0 -14 6 -2 7 -8 10 -12 6 -10 -9 23 -48 40 -48
6 0 23 -18 38 -40 14 -22 22 -40 16 -40 -19 0 -8 -19 14 -22 16 -2 21 -9 20
-24 -2 -14 6 -25 22 -32 25 -11 34 -32 15 -32 -5 0 -10 -9 -10 -20 0 -11 -4
-28 -10 -38 -15 -27 -44 -96 -44 -107 -1 -5 -3 -12 -6 -15 -7 -7 -31 -72 -33
-90 -1 -8 -8 -21 -14 -28 -7 -7 -13 -24 -13 -36 0 -13 -9 -35 -20 -49 -11 -14
-23 -40 -26 -59 -4 -18 -15 -51 -26 -73 -10 -22 -21 -55 -24 -73 -4 -30 -2
-33 16 -27 17 6 20 2 20 -29 0 -20 4 -36 8 -36 5 0 14 -10 19 -23 9 -19 20
-24 51 -25 29 -1 42 3 46 15 6 15 8 15 19 -1 10 -13 21 -16 55 -10 26 4 42 12
42 20 0 8 9 23 20 34 11 11 20 25 20 30 0 6 4 10 8 10 11 0 33 70 26 82 -3 4
0 8 5 8 6 0 11 8 12 18 1 11 4 9 9 -8 7 -22 8 -21 9 13 1 20 5 37 9 37 5 0 7
-35 5 -77 -2 -54 0 -72 6 -58 9 19 10 19 10 -3 1 -39 34 -88 62 -94 8 -2 19
-10 26 -18 11 -13 14 -13 23 0 8 13 10 13 10 1 0 -11 4 -10 16 5 11 13 17 15
20 7 3 -7 12 -13 19 -13 8 0 19 -8 25 -17 8 -15 9 -12 4 10 -5 21 -3 28 7 27
30 -5 37 2 49 45 7 25 17 45 22 45 6 0 8 7 4 15 -3 8 -1 15 5 15 5 0 9 6 8 13
-3 28 3 111 8 98 3 -7 14 -22 24 -32 23 -23 26 -47 4 -29 -22 18 -32 4 -13
-17 9 -10 13 -24 11 -30 -6 -17 14 -17 21 0 3 6 3 2 1 -9 -5 -17 0 -23 21 -28
21 -6 24 -10 15 -19 -9 -9 -14 -8 -21 3 -5 8 -12 11 -16 8 -9 -10 16 -31 51
-44 22 -7 29 -16 28 -31 -2 -15 6 -24 26 -33 39 -16 76 -10 75 13 -2 21 15 22
30 2 16 -23 97 -9 103 16 3 11 10 19 15 19 6 0 8 6 5 14 -3 8 -1 16 5 18 8 3
7 10 -1 26 -7 14 -8 22 -2 22 11 0 4 57 -9 75 -4 6 -10 26 -14 47 -4 20 -18
57 -31 83 -14 25 -25 51 -25 56 0 5 -9 29 -20 51 -11 23 -20 49 -20 57 0 9
-11 36 -25 60 -14 23 -25 49 -25 56 0 7 -11 37 -25 67 -13 29 -20 54 -15 56 6
2 10 10 10 18 0 8 5 14 10 14 6 0 10 6 10 14 0 8 7 16 15 20 8 3 15 12 15 21
0 8 5 15 11 15 6 0 9 7 5 15 -3 8 -1 15 5 15 5 0 7 11 3 24 -4 17 1 28 20 43
14 11 28 32 31 46 4 15 10 26 14 25 14 -3 41 15 41 28 0 8 5 14 10 14 7 0 7 6
0 19 -6 12 -6 22 -1 25 5 3 7 16 3 28 -3 13 -1 19 5 15 8 -5 8 5 2 31 -5 20
-12 50 -16 66 -6 30 -20 48 -90 120 -24 23 -43 50 -43 58 0 8 -11 28 -25 44
-38 44 -39 71 -6 152 17 40 27 80 24 89 -4 11 -3 14 5 9 8 -5 12 0 12 13 0 12
3 21 8 21 4 0 12 12 19 28 43 99 52 125 47 133 -3 5 -1 9 3 9 10 0 43 73 46
103 1 12 6 25 11 28 4 4 3 16 -3 28 -7 11 -8 21 -3 21 12 0 2 93 -10 101 -5 3
-8 10 -7 15 1 5 1 22 0 38 -1 21 -5 27 -17 22 -8 -3 -13 -2 -10 3 3 4 -6 13
-19 19 -19 9 -32 8 -58 -3 -19 -8 -38 -11 -41 -7 -4 4 -20 7 -35 8 -23 1 -30
-5 -44 -37 -9 -22 -23 -39 -29 -39 -13 0 -48 -73 -48 -98 0 -7 -4 -20 -9 -30
-5 -9 -20 -41 -33 -69 l-23 -53 -1 97 c-1 77 -4 98 -17 108 -11 8 -17 27 -17
53 0 34 -3 41 -25 46 -14 4 -28 13 -31 20 -5 12 -11 12 -40 0 -19 -8 -40 -11
-46 -7 -7 3 -22 7 -35 8 -18 0 -23 -5 -23 -25 0 -17 -3 -21 -9 -12 -6 10 -10
4 -14 -18 -4 -17 -11 -29 -16 -25 -5 3 -12 1 -15 -3 -5 -8 -14 -83 -20 -165
-3 -41 -16 -64 -16 -29 0 13 -6 22 -15 22 -8 0 -15 8 -15 19 0 18 -36 120 -62
173 -7 16 -19 28 -26 28 -7 0 -16 8 -19 18 -9 23 -23 32 -51 32 -15 0 -26 7
-29 20 -3 11 -10 20 -15 20 -5 0 -6 -9 -3 -21z m613 -1176 c-20 -5 -24 -19 -8
-26 6 -3 5 -4 -2 -3 -7 1 -14 10 -16 19 -3 12 3 17 20 16 17 -1 18 -3 6 -6z"/>
<path d="M1580 2350 c0 -5 5 -10 10 -10 6 0 10 5 10 10 0 6 -4 10 -10 10 -5 0
-10 -4 -10 -10z"/>
<path d="M790 1730 c0 -5 5 -10 10 -10 6 0 10 5 10 10 0 6 -4 10 -10 10 -5 0
-10 -4 -10 -10z"/>
<path d="M660 1090 c0 -5 5 -10 10 -10 6 0 10 5 10 10 0 6 -4 10 -10 10 -5 0
-10 -4 -10 -10z"/>
<path d="M780 910 c0 -5 5 -10 10 -10 6 0 10 5 10 10 0 6 -4 10 -10 10 -5 0
-10 -4 -10 -10z"/>
</g>
</svg>
