<?xml version="1.0" standalone="no"?>
<!DOCTYPE svg PUBLIC "-//W3C//DTD SVG 20010904//EN"
 "http://www.w3.org/TR/2001/REC-SVG-20010904/DTD/svg10.dtd">
<svg version="1.0" xmlns="http://www.w3.org/2000/svg"
 width="240.000000pt" height="240.000000pt" viewBox="0 0 240.000000 240.000000"
 preserveAspectRatio="xMidYMid meet">
<metadata>
Created by potrace 1.13, written by Peter Selinger 2001-2015
</metadata>
<g transform="translate(0.000000,240.000000) scale(0.100000,-0.100000)"
fill="#000000" stroke="none">
<path d="M804 2309 c-3 -5 -9 -7 -14 -4 -13 8 -60 -13 -60 -28 0 -7 -9 -19
-20 -27 -12 -8 -23 -31 -27 -53 -3 -20 -9 -40 -13 -42 -4 -3 -5 -20 0 -38 4
-19 6 -70 5 -113 -1 -43 2 -85 7 -91 6 -7 6 -13 2 -13 -5 0 -8 -30 -6 -67 2
-38 3 -79 3 -93 0 -14 0 -37 -1 -52 0 -16 -4 -28 -10 -28 -5 0 -7 -6 -4 -14 8
-22 11 -106 4 -106 -7 0 -5 -43 4 -107 3 -19 1 -33 -5 -33 -6 0 -7 -4 -4 -10
3 -5 6 -58 5 -117 0 -60 0 -124 0 -143 0 -56 1 -172 1 -207 2 -97 1 -151 -1
-173 -1 -14 0 -49 3 -77 3 -29 2 -53 -3 -53 -4 0 -6 -28 -5 -62 2 -35 4 -63 5
-63 1 0 3 -58 4 -130 2 -71 7 -145 11 -162 5 -23 4 -33 -4 -33 -18 0 19 -58
41 -63 10 -3 18 -14 18 -25 0 -30 31 -37 51 -11 10 14 22 20 33 16 9 -4 16 -2
16 4 0 7 10 9 26 5 21 -6 25 -4 21 8 -4 9 -2 16 3 16 6 0 10 -7 10 -16 0 -9 6
-14 13 -11 6 2 11 10 9 16 -1 6 5 11 13 11 17 0 20 16 6 24 -5 4 -12 0 -14 -6
-3 -7 -6 2 -6 20 -1 18 5 43 13 55 16 25 18 73 5 99 -5 9 -4 29 3 48 8 25 8
38 -1 51 -6 11 -7 19 -2 19 5 0 10 37 11 83 1 45 3 99 5 119 1 20 -4 49 -11
64 -17 31 -17 37 -4 29 14 -9 13 51 -1 78 -9 16 -9 22 0 25 14 5 15 47 1 72
-8 15 -4 21 25 34 19 10 35 23 35 31 0 7 9 17 20 20 11 3 20 11 20 17 0 6 -7
5 -17 -3 -10 -7 -8 -2 5 12 18 19 24 21 31 10 8 -12 12 -12 26 2 9 10 27 17
40 17 14 0 29 9 35 20 6 11 17 20 25 20 8 0 15 7 15 15 0 8 7 15 15 15 8 0 15
6 15 14 0 7 13 16 29 19 32 7 83 70 75 91 -3 7 4 20 14 30 17 15 20 15 25 1 4
-8 11 -15 17 -15 6 0 8 5 5 10 -3 6 2 13 12 17 10 4 24 13 31 20 7 7 22 13 33
13 11 0 17 5 14 10 -3 6 1 13 9 16 9 3 16 12 16 20 0 8 6 14 14 14 8 0 17 7
20 16 3 9 12 14 20 11 8 -3 16 2 19 14 3 10 1 19 -5 19 -5 0 -6 5 -3 10 4 6
11 8 16 5 5 -4 9 0 10 7 0 7 4 34 8 61 5 28 4 47 -2 47 -5 0 -6 8 -2 18 12 27
7 56 -11 69 -10 7 -14 13 -10 13 5 0 -3 9 -18 21 -14 11 -26 25 -26 30 0 16
-27 39 -35 31 -4 -4 -5 -1 -3 6 2 8 -5 19 -16 25 -25 16 -66 56 -66 65 0 10
-38 42 -50 42 -6 0 -10 5 -10 10 0 6 -5 10 -11 10 -11 0 -39 24 -39 34 0 14
-45 56 -60 56 -10 0 -38 27 -65 61 -31 39 -52 58 -62 55 -15 -6 -36 11 -41 33
-4 17 -20 33 -54 50 -16 8 -28 20 -28 28 0 11 -5 14 -25 13 -11 -1 -35 29 -45
55 -8 20 -15 26 -30 22 -11 -3 -22 -2 -25 2 -6 11 -64 11 -71 0z m186 -464 c0
-18 73 -91 109 -109 16 -9 32 -25 36 -35 3 -11 29 -38 58 -60 29 -23 64 -53
79 -68 l26 -26 -44 -34 c-24 -19 -48 -42 -54 -53 -6 -11 -19 -20 -29 -20 -10
0 -24 -7 -31 -15 -17 -21 -183 -141 -189 -137 -4 2 -5 11 -4 20 1 9 3 86 4
170 1 111 -3 157 -12 168 -10 13 -10 17 1 24 11 7 12 14 2 35 -15 32 -16 79
-2 70 7 -4 7 3 0 19 -7 18 -6 26 1 26 7 0 9 10 5 24 -5 20 -3 23 19 18 14 -2
25 -10 25 -17z m110 -775 c0 -5 -2 -10 -4 -10 -3 0 -8 5 -11 10 -3 6 -1 10 4
10 6 0 11 -4 11 -10z"/>
</g>
</svg>
