<?xml version="1.0" standalone="no"?>
<!DOCTYPE svg PUBLIC "-//W3C//DTD SVG 20010904//EN"
 "http://www.w3.org/TR/2001/REC-SVG-20010904/DTD/svg10.dtd">
<svg version="1.0" xmlns="http://www.w3.org/2000/svg"
 width="240.000000pt" height="240.000000pt" viewBox="0 0 240.000000 240.000000"
 preserveAspectRatio="xMidYMid meet">
<metadata>
Created by potrace 1.13, written by Peter Selinger 2001-2015
</metadata>
<g transform="translate(0.000000,240.000000) scale(0.100000,-0.100000)"
fill="#000000" stroke="none">
<path d="M800 2380 c0 -5 7 -10 15 -10 8 0 15 -5 15 -11 0 -7 -11 -9 -30 -5
-23 4 -30 2 -30 -10 0 -11 -6 -15 -20 -11 -16 4 -20 0 -20 -21 0 -21 -2 -24
-10 -12 -8 13 -10 13 -10 -2 0 -12 -5 -15 -17 -11 -12 5 -15 2 -10 -10 3 -9 2
-19 -2 -22 -5 -2 -12 -25 -15 -50 -4 -26 -14 -49 -24 -55 -14 -8 -14 -11 -3
-19 9 -6 13 -33 13 -92 1 -50 5 -87 12 -91 7 -5 7 -8 1 -8 -14 0 -19 -256 -5
-265 5 -3 10 -18 10 -33 0 -21 -2 -24 -10 -12 -6 10 -9 2 -7 -28 0 -23 4 -42
8 -42 3 0 2 -25 -4 -56 -6 -38 -6 -68 1 -90 5 -19 7 -34 3 -34 -10 0 -10 -172
0 -192 5 -9 5 -19 1 -22 -12 -7 -12 -546 0 -546 4 0 8 -9 8 -21 0 -11 -4 -18
-9 -15 -4 3 -8 -85 -8 -197 0 -111 -4 -211 -8 -221 -7 -16 -5 -18 8 -13 11 4
14 2 11 -7 -3 -8 4 -16 15 -19 15 -3 19 -10 15 -21 -4 -9 -3 -16 2 -14 5 1 22
-10 38 -25 21 -19 35 -25 52 -21 42 11 84 10 84 0 0 -8 3 -8 8 0 4 6 27 18 52
28 24 10 55 31 69 47 13 16 30 29 37 29 8 0 14 5 14 11 0 18 27 39 59 45 17 4
31 12 31 19 0 8 14 19 30 27 17 7 30 19 30 26 0 18 64 -20 108 -65 18 -18 37
-33 42 -33 5 0 24 -14 42 -31 18 -17 52 -40 74 -50 23 -10 46 -25 53 -32 14
-18 87 -17 83 1 -3 18 5 15 42 -13 38 -29 51 -32 42 -10 -4 13 7 21 17 13 6
-5 37 30 37 41 0 6 5 11 11 11 6 0 9 7 5 15 -3 8 -2 15 3 15 10 0 7 518 -3
545 -6 15 -5 17 2 5 8 -10 10 104 10 368 -1 227 -5 377 -10 370 -6 -8 -6 -3
-1 12 11 34 10 410 -2 434 -5 13 -5 17 2 13 14 -8 10 159 -6 268 -21 147 -23
155 -37 155 -8 0 -23 9 -34 20 -16 16 -25 18 -40 10 -27 -15 -60 -12 -66 5 -4
8 -11 15 -16 15 -6 0 -7 -7 -4 -16 4 -12 1 -14 -14 -9 -14 5 -20 2 -20 -9 0
-9 -8 -16 -18 -16 -10 0 -27 -8 -38 -18 -10 -10 -27 -21 -36 -25 -10 -3 -18
-13 -18 -22 0 -8 -7 -15 -15 -15 -8 0 -24 -8 -34 -17 -37 -34 -50 -43 -61 -43
-6 0 -13 -7 -16 -15 -4 -8 -12 -15 -20 -15 -8 0 -14 -6 -14 -14 0 -31 -40 -24
-82 15 -23 21 -50 42 -60 45 -10 3 -18 9 -18 14 0 5 -8 11 -17 14 -10 4 -32
19 -50 34 -64 55 -75 63 -121 85 -26 12 -56 30 -66 40 -22 19 -36 22 -36 7z
m695 -100 c-3 -5 -12 -10 -18 -10 -7 0 -6 4 3 10 19 12 23 12 15 0z m-481
-442 c13 -13 34 -30 46 -38 13 -8 28 -20 34 -26 37 -35 95 -44 116 -19 7 9 16
12 19 7 12 -18 58 -22 71 -7 7 8 18 15 24 15 6 0 18 9 26 20 8 11 22 20 32 20
10 0 18 6 18 14 0 7 11 16 24 18 31 6 34 -5 29 -106 -3 -57 0 -82 9 -88 10 -8
10 -11 1 -15 -7 -2 -13 -12 -13 -22 0 -9 6 -23 13 -30 7 -9 8 -12 0 -7 -8 4
-11 -17 -11 -79 0 -47 4 -85 9 -85 5 0 9 -10 9 -22 0 -14 -3 -18 -8 -11 -4 6
-8 -87 -9 -208 -1 -121 2 -217 6 -215 5 3 5 -13 1 -35 -4 -22 -7 -114 -6 -205
1 -91 -2 -168 -6 -170 -4 -3 -8 3 -9 13 0 10 -3 13 -6 6 -7 -18 -17 -16 -45
11 -33 30 -92 66 -108 66 -7 0 -21 10 -31 22 -11 11 -22 18 -27 13 -4 -4 -1
-10 6 -12 28 -10 9 -22 -29 -19 -30 3 -46 -1 -60 -15 -10 -10 -25 -16 -34 -13
-8 4 -15 2 -15 -4 0 -5 -9 -12 -20 -15 -11 -3 -20 -12 -20 -21 0 -9 -7 -16
-15 -16 -8 0 -15 -6 -15 -12 0 -16 -50 -20 -51 -4 -1 6 -2 236 -4 511 -2 275
-5 536 -9 580 -4 58 -3 76 5 65 9 -13 10 -12 5 3 -3 9 -9 24 -13 34 -4 10 -3
14 4 10 13 -8 11 52 -1 72 -4 6 -2 11 4 11 7 0 10 7 6 15 -8 23 19 18 48 -7z"/>
<path d="M1433 1720 c0 -30 2 -43 4 -27 2 15 2 39 0 55 -2 15 -4 2 -4 -28z"/>
<path d="M1432 1505 c0 -16 2 -22 5 -12 2 9 2 23 0 30 -3 6 -5 -1 -5 -18z"/>
<path d="M1432 1235 c0 -16 2 -22 5 -12 2 9 2 23 0 30 -3 6 -5 -1 -5 -18z"/>
<path d="M1432 1125 c0 -16 2 -22 5 -12 2 9 2 23 0 30 -3 6 -5 -1 -5 -18z"/>
<path d="M1432 1050 c0 -19 2 -27 5 -17 2 9 2 25 0 35 -3 9 -5 1 -5 -18z"/>
<path d="M1432 790 c0 -19 2 -27 5 -17 2 9 2 25 0 35 -3 9 -5 1 -5 -18z"/>
<path d="M632 2080 c0 -14 2 -19 5 -12 2 6 2 18 0 25 -3 6 -5 1 -5 -13z"/>
<path d="M632 2020 c0 -14 2 -19 5 -12 2 6 2 18 0 25 -3 6 -5 1 -5 -13z"/>
<path d="M631 1494 c0 -11 3 -14 6 -6 3 7 2 16 -1 19 -3 4 -6 -2 -5 -13z"/>
<path d="M631 1384 c0 -11 3 -14 6 -6 3 7 2 16 -1 19 -3 4 -6 -2 -5 -13z"/>
<path d="M631 1034 c0 -11 3 -14 6 -6 3 7 2 16 -1 19 -3 4 -6 -2 -5 -13z"/>
<path d="M631 984 c0 -11 3 -14 6 -6 3 7 2 16 -1 19 -3 4 -6 -2 -5 -13z"/>
<path d="M631 684 c0 -11 3 -14 6 -6 3 7 2 16 -1 19 -3 4 -6 -2 -5 -13z"/>
<path d="M632 390 c0 -14 2 -19 5 -12 2 6 2 18 0 25 -3 6 -5 1 -5 -13z"/>
<path d="M631 324 c0 -11 3 -14 6 -6 3 7 2 16 -1 19 -3 4 -6 -2 -5 -13z"/>
<path d="M631 284 c0 -11 3 -14 6 -6 3 7 2 16 -1 19 -3 4 -6 -2 -5 -13z"/>
</g>
</svg>
