<?xml version="1.0" standalone="no"?>
<!DOCTYPE svg PUBLIC "-//W3C//DTD SVG 20010904//EN"
 "http://www.w3.org/TR/2001/REC-SVG-20010904/DTD/svg10.dtd">
<svg version="1.0" xmlns="http://www.w3.org/2000/svg"
 width="240.000000pt" height="240.000000pt" viewBox="0 0 240.000000 240.000000"
 preserveAspectRatio="xMidYMid meet">
<metadata>
Created by potrace 1.13, written by Peter Selinger 2001-2015
</metadata>
<g transform="translate(0.000000,240.000000) scale(0.100000,-0.100000)"
fill="#000000" stroke="none">
<path d="M812 2323 c-8 -13 -13 -15 -24 -5 -12 9 -20 5 -44 -25 -16 -21 -37
-46 -47 -56 -10 -10 -16 -25 -13 -33 3 -8 -1 -39 -8 -68 -10 -35 -12 -66 -6
-90 4 -20 4 -36 0 -36 -10 0 -7 -70 3 -87 4 -6 3 -30 -2 -52 -5 -22 -6 -43 -3
-46 9 -9 9 -475 0 -475 -5 0 -5 -8 0 -17 5 -10 8 -40 5 -68 -5 -62 -5 -56 0
-142 2 -40 -1 -73 -6 -73 -5 0 -6 -8 -2 -17 4 -10 9 -67 10 -126 2 -60 5 -111
8 -113 3 -3 -1 -24 -8 -48 -8 -25 -9 -48 -4 -58 5 -8 8 -28 8 -44 -1 -77 -2
-94 -10 -94 -5 0 -7 -6 -5 -13 9 -28 16 -128 9 -124 -9 6 -9 -70 0 -79 3 -3 3
-21 0 -39 -3 -19 0 -63 7 -99 13 -68 42 -106 83 -109 12 0 25 -6 29 -12 5 -6
8 -6 8 3 0 6 9 12 21 12 11 0 17 -4 14 -10 -4 -6 5 -10 19 -10 20 0 27 7 33
28 l7 27 7 -25 7 -25 1 27 c1 15 6 30 12 33 6 4 8 13 5 21 -3 8 0 14 7 14 19
0 24 399 5 430 -10 18 -10 24 0 27 16 6 16 32 -1 39 -15 5 -11 64 4 64 10 0 5
92 -6 110 -5 8 -4 11 3 6 15 -9 16 482 1 501 -9 9 -8 13 0 13 14 0 15 86 1 95
-5 3 -10 11 -10 16 0 6 5 7 11 3 12 -7 7 55 -6 76 -4 7 -2 16 6 20 10 7 10 12
1 23 -12 14 -12 23 6 199 l7 67 48 -42 c26 -24 47 -47 47 -51 0 -5 11 -24 26
-43 15 -19 20 -33 13 -33 -10 0 -10 -3 -1 -12 7 -7 12 -20 12 -30 0 -10 8 -31
18 -45 12 -19 13 -25 3 -18 -11 6 -13 4 -7 -10 4 -10 11 -38 17 -63 5 -24 16
-54 24 -66 8 -11 15 -30 15 -43 0 -12 4 -24 10 -28 5 -3 7 -12 3 -20 -3 -9 -1
-21 4 -28 9 -10 21 -71 27 -132 2 -11 8 -31 15 -43 7 -13 11 -26 8 -28 -2 -3
6 -48 19 -102 14 -53 26 -107 29 -118 3 -12 12 -39 21 -60 15 -36 43 -150 48
-199 4 -31 16 -78 28 -102 6 -11 7 -26 4 -32 -4 -6 2 -31 14 -55 11 -25 20
-52 20 -60 0 -8 9 -52 21 -98 11 -46 21 -93 20 -105 0 -13 14 -37 34 -57 19
-19 37 -47 41 -61 10 -40 33 -43 61 -6 15 18 31 30 39 27 8 -3 14 -2 14 3 0 5
9 11 21 14 15 4 22 -1 29 -19 5 -13 14 -24 20 -24 6 0 9 4 5 9 -3 6 2 14 11
19 14 8 14 14 3 51 -10 35 -10 44 0 51 8 4 10 13 7 19 -4 6 -9 21 -12 33 -3
13 -9 43 -15 68 -6 25 -13 60 -16 78 -3 17 -9 32 -14 32 -5 0 -9 19 -9 43 -1
23 -10 67 -21 97 -11 30 -20 67 -20 82 1 15 -3 29 -9 33 -5 3 -10 16 -10 29 0
13 -7 37 -16 54 -8 18 -13 36 -9 42 3 5 3 16 -1 22 -5 7 -9 19 -9 28 -5 46
-29 138 -43 159 -9 13 -15 35 -14 48 2 13 -2 23 -8 23 -6 0 -8 5 -5 10 3 6 3
16 -1 22 -5 7 -10 31 -12 53 -2 22 -12 65 -22 96 -24 71 -41 142 -58 244 -8
46 -26 118 -40 155 -3 8 -4 20 -3 26 1 7 -4 25 -10 40 -7 16 -13 34 -14 39 -6
45 -19 87 -29 93 -7 4 -18 22 -25 40 -12 29 -22 37 -44 33 -4 -1 -14 14 -22
33 -16 39 -31 51 -60 51 -13 0 -23 10 -30 30 -11 34 -23 45 -41 38 -7 -3 -15
7 -19 25 -6 29 -74 102 -95 102 -5 0 -10 6 -10 14 0 8 -11 17 -25 20 -14 4
-25 13 -25 20 0 8 -11 17 -25 20 -14 4 -25 13 -25 22 0 9 -6 14 -12 11 -7 -2
-21 0 -30 4 -12 7 -20 4 -26 -8z"/>
</g>
</svg>
